<?xml version="1.0" encoding="utf-8"?>
<!-- Generator: Adobe Illustrator 23.0.2, SVG Export Plug-In . SVG Version: 6.00 Build 0)  -->
<svg version="1.1" id="Layer_1" xmlns="http://www.w3.org/2000/svg" xmlns:xlink="http://www.w3.org/1999/xlink" x="0px" y="0px"
	 viewBox="0 0 115 115" style="enable-background:new 0 0 115 115;" xml:space="preserve">
<style type="text/css">
	.st0{fill:#6AAF08;}
	.st1{fill:#FFFFFF;}
</style>
<circle class="st0" cx="57.5" cy="57.5" r="57.5"/>
<g>
	<path class="st1" d="M90.58,63.6c-1.39,0-2.69,0.29-3.9,0.77L98.2,45.3H43.3v9.95l-15.35-5.71c-0.19-1.01-0.82-1.91-1.84-2.31
		l-12.2-4.77c-1.57-0.62-3.34,0.16-3.95,1.73c-0.61,1.57,0.16,3.34,1.73,3.95l12.2,4.77c0.36,0.14,0.74,0.21,1.11,0.21
		c0.71,0,1.38-0.27,1.92-0.71l19.43,7.22l4.12,19.22h9.6l8.52-10.95l11.53,4.29c-0.13,0.68-0.21,1.37-0.21,2.09
		c0,5.9,4.78,10.67,10.68,10.67c5.9,0,10.67-4.78,10.67-10.67C101.25,68.38,96.48,63.6,90.58,63.6 M58.57,75.8h-5.65l-3.19-14.91
		l15.85,5.9L58.57,75.8z M90.58,78.85c-2.53,0-4.58-2.05-4.58-4.58c0-2.53,2.05-4.58,4.58-4.58c2.53,0,4.58,2.05,4.58,4.58
		C95.15,76.8,93.1,78.85,90.58,78.85"/>
	<path class="st1" d="M91.54,42.25c-1.26-3.54-4.61-6.1-8.59-6.1c-2.38,0-4.53,0.93-6.16,2.42c-0.33-4.75-4.25-8.52-9.09-8.52
		c-4.34,0-7.96,3.03-8.89,7.08c-0.95-0.62-2.09-0.98-3.31-0.98c-3.37,0-6.1,2.73-6.1,6.1H91.54z"/>
</g>
</svg>
