<?xml version="1.0" encoding="utf-8"?>
<!-- Generator: Adobe Illustrator 23.0.2, SVG Export Plug-In . SVG Version: 6.00 Build 0)  -->
<svg version="1.1" id="Layer_1" xmlns="http://www.w3.org/2000/svg" xmlns:xlink="http://www.w3.org/1999/xlink" x="0px" y="0px"
	 viewBox="0 0 115 115" style="enable-background:new 0 0 115 115;" xml:space="preserve">
<style type="text/css">
	.st0{fill:#6AAF08;}
	.st1{fill:#FFFFFF;}
</style>
<circle class="st0" cx="57.5" cy="57.5" r="57.5"/>
<g>
	<path class="st1" d="M40.6,61.8c-5.92,0-10.72,4.8-10.72,10.72c0,5.92,4.8,10.72,10.72,10.72c5.92,0,10.72-4.8,10.72-10.72
		C51.31,66.6,46.51,61.8,40.6,61.8 M40.6,77.32c-2.65,0-4.81-2.16-4.81-4.81c0-2.65,2.16-4.8,4.81-4.8c2.65,0,4.81,2.15,4.81,4.8
		C45.4,75.17,43.25,77.32,40.6,77.32"/>
	<path class="st1" d="M66.22,61.8c-5.92,0-10.72,4.8-10.72,10.72c0,5.92,4.8,10.72,10.72,10.72c5.92,0,10.72-4.8,10.72-10.72
		C76.94,66.6,72.14,61.8,66.22,61.8 M66.22,77.32c-2.65,0-4.81-2.16-4.81-4.81c0-2.65,2.16-4.8,4.81-4.8c2.65,0,4.81,2.15,4.81,4.8
		C71.03,75.17,68.87,77.32,66.22,77.32"/>
	<path class="st1" d="M27.97,46.86c1.01,0,1.93-0.61,2.64,0l3.19-0.85V31.77H22.14v11.22l3.19,3.64
		C26.04,46.02,26.97,46.86,27.97,46.86 M23.29,34.41h9.36v1.15h-9.36V34.41z M23.29,37.85h9.36V39h-9.36V37.85z"/>
	<path class="st1" d="M102.94,62.35h-7.11c-1.4,0-2.53,1.13-2.53,2.53v1.97h-3.24l-5.11-6.52h-6.63V43.62h-7.25v0.01H29.48v-4.42
		H22.2v14.92L9.53,69.12v4.3h16.16c-0.02-0.3-0.03-0.6-0.03-0.9c0-8.24,6.7-14.94,14.94-14.94c5.46,0,10.24,2.95,12.84,7.34
		c2.6-4.4,7.4-7.36,12.89-7.36c6.02,0,11.21,3.56,13.58,8.68h2.16l5.11,6.52h6.12v0.01h12.17v-7.89
		C105.47,63.48,104.34,62.35,102.94,62.35"/>
</g>
</svg>
