<?xml version="1.0" encoding="utf-8"?>
<!-- Generator: Adobe Illustrator 23.0.2, SVG Export Plug-In . SVG Version: 6.00 Build 0)  -->
<svg version="1.1" id="Layer_1" xmlns="http://www.w3.org/2000/svg" xmlns:xlink="http://www.w3.org/1999/xlink" x="0px" y="0px"
	 viewBox="0 0 115 115" style="enable-background:new 0 0 115 115;" xml:space="preserve">
<style type="text/css">
	.st0{fill:#6AAF08;}
	.st1{fill:#FFFFFF;}
</style>
<circle class="st0" cx="57.5" cy="57.5" r="57.5"/>
<g>
	<path class="st1" d="M43.92,71.52c-1.43,0-2.85-0.02-4.28,0.01c-0.86,0.02-1.47-0.32-1.94-1.02c-0.87-1.3-1.88-2.48-3.08-3.48
		c-2.46-2.08-5.33-3.12-8.54-3.3c-4.3-0.24-8.02,1.13-11.25,3.94c-0.62,0.54-1.3,0.96-2.16,0.84c-1.49-0.21-2.45-2.03-1.78-3.43
		c0.8-1.65,1.64-3.27,2.47-4.9c0.9-1.74,1.8-3.48,2.71-5.22c0.84-1.6,2.21-2.28,3.96-2.14c2.71,0.23,5.41,0.53,8.11,0.8
		c2.1,0.21,4.19,0.42,6.29,0.63c1.36,0.13,2.51,0.67,3.47,1.63c2.37,2.38,4.73,4.77,7.11,7.14c1.27,1.27,2.55,2.55,3.86,3.79
		c1.05,0.99,1.09,2.22,0.91,3.51c-0.13,0.93-0.31,1.09-1.25,1.16c-0.4,0.03-0.81,0.03-1.22,0.03c-1.13,0-2.27,0-3.4,0V71.52z"/>
	<path class="st1" d="M39.4,73.44h0.64c18.07,0,36.14,0,54.2,0c0.71,0,0.63,0.08,0.64-0.62c0-0.35-0.01-0.7,0-1.05
		c0.02-0.65,0.42-1.05,1.07-1.07c0.41-0.01,0.81-0.01,1.22,0c0.82,0.01,1.21,0.38,1.21,1.2c0.01,2.46,0.04,4.92-0.02,7.38
		c-0.02,0.86,0.17,1.31,1.01,1.73c2.35,1.16,3.44,3.91,2.73,6.45c-0.71,2.54-3.06,4.23-5.81,4.06c-2.19-0.14-3.8-1.25-4.71-3.23
		c-0.96-2.08-0.68-4.08,0.71-5.9c0.59-0.77,1.35-1.32,2.25-1.67c0.26-0.1,0.35-0.24,0.34-0.51c-0.02-0.55-0.01-1.1-0.01-1.7h-0.65
		c-17.21,0-34.42,0-51.63,0c-0.45,0-0.9-0.02-1.35-0.07c-0.62-0.06-1.03-0.43-1.15-1.03C39.85,76.1,39.64,74.79,39.4,73.44
		 M100.18,85.9c0-1.94-1.55-3.49-3.49-3.49c-1.93,0-3.5,1.57-3.49,3.5c0.01,1.93,1.58,3.5,3.5,3.5
		C98.62,89.41,100.18,87.84,100.18,85.9"/>
	<path class="st1" d="M25.05,65.93c7.03,0,12.73,5.7,12.71,12.75c-0.02,7.2-5.91,12.78-12.93,12.72
		c-6.86-0.06-12.57-5.81-12.56-12.75C12.28,71.59,17.97,65.93,25.05,65.93 M25.02,86.58c4.38,0,7.92-3.55,7.92-7.94
		c0-4.42-3.54-7.91-8.03-7.91c-4.29,0-7.82,3.59-7.81,7.95C17.1,83.04,20.67,86.59,25.02,86.58"/>
	<path class="st1" d="M85.55,87.88c-1.03,0.08-1.94,0.2-2.85,0.2c-12.96,0.01-25.92,0.01-38.88,0.01c-0.29,0-0.58-0.02-0.86-0.08
		c-0.47-0.11-0.68-0.49-0.44-0.89c1.07-1.81,2.13-3.63,3.29-5.39c0.45-0.68,1.31-0.81,2.08-0.83c2.14-0.06,4.27-0.05,6.41-0.07
		c0.35,0,0.7,0,1.05,0c6.65,0,13.29,0,19.94,0c1.34,0,2.68-0.03,4.01-0.02c1.81,0.02,3.14,0.77,3.86,2.51
		c0.36,0.88,0.85,1.72,1.29,2.57C84.77,86.51,85.13,87.12,85.55,87.88"/>
	<path class="st1" d="M54.57,62.56c0.04-0.4,0.1-0.77,0.1-1.14c0.01-3.87,0.01-7.74,0.04-11.61c0.01-0.87-0.31-1.52-0.99-2.07
		c-1.44-1.18-2.86-2.39-4.28-3.59c-0.14-0.12-0.29-0.25-0.41-0.39c-0.1-0.12-0.2-0.27-0.23-0.41c-0.13-0.66,0.39-0.99,0.77-1.36
		c0.29-0.29,0.65-0.39,1.04-0.17c0.2,0.11,0.4,0.24,0.58,0.39c1.71,1.44,3.42,2.89,5.13,4.34c0.64,0.54,0.92,1.25,0.91,2.08
		c-0.01,1.61-0.04,3.23-0.03,4.84c0,2.94,0.02,5.88,0.03,8.81c0,0.9,0.13,1.08,1,1.32c5.85,1.6,11.71,3.2,17.56,4.8
		c1.16,0.32,2.33,0.62,3.49,0.96c0.76,0.22,1.09,0.69,1.03,1.41c-0.04,0.47-0.28,0.72-0.75,0.75c-0.28,0.02-0.55,0-0.83,0
		c-8.26,0-16.53,0-24.79,0c-0.32,0-0.64-0.03-0.96-0.07c-0.67-0.09-0.94-0.39-0.96-1.07c-0.02-0.55,0.03-1.11-0.02-1.66
		c-0.11-1.12-0.69-2-1.47-2.8c-1.69-1.74-3.37-3.5-5.04-5.25c-0.09-0.1-0.11-0.26-0.16-0.4c0.14-0.01,0.3-0.07,0.43-0.03
		c2.82,0.75,5.64,1.5,8.46,2.26C54.33,62.51,54.42,62.53,54.57,62.56"/>
	<path class="st1" d="M34.16,39.78c0.81,0.04,1.18,0.3,1.37,1.11c0.62,2.66,1.22,5.32,1.83,7.98c0.13,0.57,0.24,1.13,0.35,1.7
		c0.11,0.54,0.46,0.88,0.97,1.01c0.89,0.22,1.78,0.39,2.68,0.58c2.16,0.45,4.32,0.89,6.48,1.33c0.2,0.04,0.4,0.1,0.59,0.16
		c0.91,0.32,1.28,0.95,1.08,1.9c-0.1,0.48-0.24,0.96-0.39,1.42c-0.21,0.65-0.72,0.96-1.4,0.82c-1.97-0.4-3.95-0.83-5.92-1.25
		c-0.59-0.12-1-0.51-1.38-0.94c-0.95-1.06-1.99-2-3.29-2.61c-0.81-0.38-1.65-0.62-2.55-0.68c-0.71-0.05-1-0.26-1.14-0.92
		c-0.66-3.12-1.32-6.25-1.96-9.38c-0.23-1.13,0.09-1.6,1.22-1.91C33.19,39.97,33.68,39.89,34.16,39.78"/>
	<path class="st1" d="M28.84,59.92c-0.98,0-1.83-0.72-1.98-1.71l-3.19-22l-4.55-9.89c-0.46-1-0.02-2.19,0.98-2.65
		c1-0.46,2.19-0.02,2.65,0.98l4.67,10.15c0.08,0.18,0.14,0.36,0.16,0.55l3.23,22.28c0.16,1.09-0.6,2.11-1.69,2.27
		C29.04,59.91,28.94,59.92,28.84,59.92"/>
</g>
</svg>
