<?xml version="1.0" encoding="utf-8"?>
<!-- Generator: Adobe Illustrator 23.0.2, SVG Export Plug-In . SVG Version: 6.00 Build 0)  -->
<svg version="1.1" id="Layer_1" xmlns="http://www.w3.org/2000/svg" xmlns:xlink="http://www.w3.org/1999/xlink" x="0px" y="0px"
	 viewBox="0 0 97.66 61.9" style="enable-background:new 0 0 97.66 61.9;" xml:space="preserve">
<path d="M20.94,41.58c-5.12,0-9.46,4.19-9.46,9.46c0,5.12,4.19,9.46,9.46,9.46c5.12,0,9.46-4.19,9.46-9.46
	C30.25,45.77,26.06,41.58,20.94,41.58"/>
<path d="M51.66,41.58c-5.12,0-9.46,4.19-9.46,9.46c0,5.12,4.19,9.46,9.46,9.46c5.27,0,9.46-4.19,9.46-9.46
	C61.12,45.77,56.94,41.58,51.66,41.58"/>
<path d="M97.12,59.11c-9-7.14-12.1-17.53-9-30.72c0.15-0.47,0-0.93-0.31-1.4c-0.31-0.31-0.78-0.62-1.24-0.62
	c-4.81,0-8.84,4.03-8.84,8.84v8.22v0.15l-8.84-3.88V36.3c0-0.31-0.15-0.62-0.31-0.93l-5.27-6.83c-0.31-0.47-0.78-0.62-1.24-0.62
	h-4.5v-9.15l2.95-2.17c0.78-0.47,0.78-1.55,0.31-2.17c-0.47-0.78-1.55-0.93-2.17-0.31l-3.57,2.79c-0.47,0.31-0.62,0.78-0.62,1.24
	v9.93h-5.27L41.89,1.09C41.73,0.47,41.11,0,40.34,0H18.93c-0.78,0-1.55,0.62-1.55,1.55v15.98H8.53c-2.48,0-4.34,2.02-4.34,4.34v6.36
	H1.55C0.62,28.24,0,29.01,0,29.79v21.25c0,0.93,0.62,1.55,1.55,1.55h6.83c0-0.47-0.15-1.09-0.15-1.55c0-6.83,5.59-12.57,12.57-12.57
	c6.98,0,12.57,5.58,12.57,12.57c0,0.47,0,1.09-0.15,1.55h6.05c0-0.47-0.16-1.09-0.16-1.55c0-6.83,5.58-12.57,12.57-12.57
	c6.83,0,12.57,5.58,12.57,12.57c0,0.47,0,1.09-0.15,1.55h3.26c0.78,0,1.55-0.62,1.55-1.55v-7.76l9.31,4.03
	c0.78,3.57,2.48,6.67,4.96,9.31c3.41,3.41,8.07,5.27,12.88,5.27c0.62,0,1.24-0.46,1.4-1.09C97.89,60.19,97.58,59.57,97.12,59.11
	 M17.38,28.08H7.14v-6.36c0-0.77,0.62-1.24,1.24-1.24h8.84v7.6H17.38z M20.48,28.08V2.95h18.77l6.83,25.13H20.48z"/>
</svg>
