<?xml version="1.0" encoding="utf-8"?>
<!-- Generator: Adobe Illustrator 23.0.2, SVG Export Plug-In . SVG Version: 6.00 Build 0)  -->
<svg version="1.1" id="Layer_1" xmlns="http://www.w3.org/2000/svg" xmlns:xlink="http://www.w3.org/1999/xlink" x="0px" y="0px"
	 viewBox="0 0 65 62.8" style="enable-background:new 0 0 65 62.8;" xml:space="preserve">
<path d="M44.2,42.6h8.5v-0.5h-6.6v-5.9h0.3c5.1-0.4,9-4.2,9-8.8c0-4.9-4.5-23.8-10-23.8s-10,19-10,23.8c0,4.6,3.9,8.3,9,8.8v5.9h-25
	v0.5h1.8c8.3,1.2,22.1,4.4,17.2,9.4c-3.5,3.7-8.3,6-13.3,6.3c0,0,26,9.3,35.7-2.7C58,48.6,51.6,43.7,44.2,42.6 M40.7,18.8l0.3-0.3
	l4.2,3.8v-8.7h0.4v15.2l3.3-3.3l0.3,0.3l-3.6,3.6v3.9h-0.4V22.9l-0.1-0.1L40.7,18.8z"/>
<path d="M10,0C4.5,0,0,18.9,0,23.8c0,4.5,3.8,8.2,8.7,8.7v4.4V37h0.2c0.9-0.1,1.7,0.2,2.2,0.9h0.2c0.1-0.2,0.2-0.4,0.4-0.5v-0.1
	v-4.8c4.7-0.7,8.3-4.3,8.3-8.7C20,18.9,15.5,0,10,0 M10.3,25.8v3.9H9.9V19.3l-0.1-0.1l-4.4-4l0.3-0.3l4.2,3.8V10h0.4v15.2l3.2-3.3
	l0.3,0.3L10.3,25.8z"/>
<path d="M5.5,41.5h7.2c0.9,0,1.5,0.7,1.5,1.5v0.7c0,0.9-0.7,1.5-1.5,1.5H5.5c-0.9,0-1.5-0.7-1.5-1.5V43C3.9,42.2,4.6,41.5,5.5,41.5"
	/>
<path d="M14.4,37.1l5.2,5c0.6,0.6,0.6,1.6,0.1,2.2l-0.5,0.5c-0.6,0.6-1.6,0.6-2.2,0.1l-5.2-5c-0.6-0.6-0.6-1.6-0.1-2.2l0.5-0.5
	C12.8,36.5,13.7,36.5,14.4,37.1"/>
<path d="M3.9,37.2l5.8,0.2c0.9,0,1.5,0.7,1.5,1.6v0.7c0,0.9-0.7,1.5-1.6,1.5L3.8,41c-0.9,0-1.5-0.7-1.5-1.6v-0.7
	C2.3,37.9,3.1,37.2,3.9,37.2"/>
<path d="M24.3,62.8h-6.7c-0.8,0-1.4-0.6-1.4-1.4v-0.6c0-0.8,0.6-1.4,1.4-1.4h6.7c0.8,0,1.4,0.6,1.4,1.4v0.6
	C25.7,62.2,25.1,62.8,24.3,62.8"/>
<path d="M18.5,57.8l-4.8,4.6c-0.6,0.5-1.5,0.5-2,0L11.3,62c-0.5-0.6-0.5-1.5,0-2l4.8-4.6c0.6-0.5,1.5-0.5,2,0l0.4,0.4
	C19.1,56.4,19.1,57.3,18.5,57.8"/>
<path d="M25.9,58.9l-5.4,0.2c-0.8,0-1.4-0.6-1.5-1.4v-0.6c0-0.8,0.6-1.4,1.4-1.5l5.4-0.2c0.8,0,1.4,0.6,1.5,1.4v0.6
	C27.3,58.2,26.7,58.9,25.9,58.9"/>
<path d="M65,46.9c-3.4,1.8-3.9,5.2-4,7c0,0.1-0.2,0.1-0.2,0c-0.4-1.1-0.9-2.1-1.6-3l-0.4-0.6c-0.2-0.2-0.3-0.4-0.5-0.6
	c-1.1-1.4-2.4-2.5-3.8-3.5c-0.1-0.1-0.2-0.2-0.3-0.4c-1.2-5.6,3.2-6,3.2-6c-1.6,1.7-1.9,4.2-0.8,6.2c0.5-2.9,2.5-5.2,5.2-6.2
	c-2,2-3.1,4.8-2.9,7.6c0.6-1,1.7-1.5,2.9-1.3c-1.4,0.8-2.2,2.5-1.9,4.1C61,48.2,62.9,47,65,46.9"/>
</svg>
