<?xml version="1.0" encoding="utf-8"?>
<!-- Generator: Adobe Illustrator 23.0.2, SVG Export Plug-In . SVG Version: 6.00 Build 0)  -->
<svg version="1.1" id="Layer_1" xmlns="http://www.w3.org/2000/svg" xmlns:xlink="http://www.w3.org/1999/xlink" x="0px" y="0px"
	 viewBox="0 0 91.4 85.67" style="enable-background:new 0 0 91.4 85.67;" xml:space="preserve">
<style type="text/css">
	.st0{fill:#231F20;}
</style>
<path class="st0" d="M60.48,85.47c-0.4-0.67-0.67-1.04-0.86-1.45c-0.4-0.89-0.93-1-1.58-0.3c-0.57,0.62-1.07,0.64-1.63-0.01
	c-0.71-0.82-1.27-0.54-1.65,0.32c-0.41,0.92-0.94,1.15-1.76,0.46c-0.57-0.48-1.08-0.27-1.49,0.27c-0.56,0.75-0.95,0.66-1.62-0.02
	c-0.6-0.59-1.52-0.93-2.35-1.18c-0.24-0.07-0.8,0.48-1.02,0.85c-0.51,0.85-0.88,0.9-1.53,0.11c-0.32-0.38-0.92-0.64-1.44-0.74
	c-1.9-0.36-3.48,0.59-5.03,1.45c-1.07,0.6-1.15,0.63-1.6-0.57c-0.11-0.29-0.23-0.57-0.32-0.87c-0.24-0.8-0.69-0.93-1.4-0.51
	c-0.32,0.18-0.78,0.41-1.06,0.3c-1.07-0.4-2.02-0.27-2.93,0.37c-0.33,0.23-0.76,0.41-0.95,0.73c-0.45,0.77-0.95,0.85-1.73,0.51
	c-0.38-0.17-0.88-0.1-1.33-0.11c-0.49-0.02-0.99,0-1.49,0c-0.02-0.12-0.04-0.24-0.06-0.36c0.21-0.19,0.41-0.41,0.64-0.58
	c1.87-1.38,1.74-2.69-0.19-3.99c-0.58-0.39-0.84-1.38-1.05-2.14c-0.05-0.2,0.62-0.69,1.03-0.89c0.7-0.33,0.94-0.73,0.81-1.54
	c-0.1-0.6,0.27-1.27,0.22-1.89c-0.09-1.03-0.35-2.05-0.54-3.07c-0.1-0.52-0.35-1.08-0.24-1.56c0.32-1.4,0.7-2.71-0.86-3.68
	c-0.21-0.13-0.23-0.76-0.17-1.13c0.12-0.71,0.45-1.39,0.53-2.11c0.05-0.4-0.1-0.96-0.38-1.22c-0.69-0.67-0.66-1.17-0.04-1.87
	c0.5-0.56,0.94-1.21,1.22-1.9c0.11-0.27-0.21-0.91-0.51-1.11c-1.33-0.9-1.35-0.86-0.15-1.85c0.17-0.14,0.45-0.39,0.41-0.5
	c-0.54-1.7,1.07-3.11,0.54-4.9c-0.3-1.01,0.33-2.24-0.45-3.31c-0.11-0.15,0.19-0.71,0.41-0.99c0.56-0.74,0.32-1.19-0.44-1.52
	c-0.28-0.12-0.58-0.22-0.85-0.37c-0.55-0.32-0.6-0.77-0.03-1.05c0.85-0.43,1.38-0.87,1.32-2c-0.06-1.09-0.71-1.42-1.47-1.84
	c-0.61-0.34-0.56-0.79-0.04-1.18c0.39-0.3,0.82-0.56,1.29-0.88c0.64,0.76,1.3,0.97,2.2,0.34c0.24-0.17,1.03,0.1,1.3,0.4
	c0.66,0.72,1.15,0.77,1.78,0.01c0.22-0.26,0.63-0.37,0.96-0.53c0.86-0.4,1.73-0.78,2.6-1.17c0.14-0.06,0.34-0.2,0.41-0.15
	c1.57,1.08,3.23-0.27,4.81,0.18c0.35,0.1,0.72,0.25,1,0.48c0.61,0.5,1.13,0.49,1.55-0.17c0.49-0.77,0.99-0.73,1.74-0.32
	c0.39,0.21,1.15,0.17,1.52-0.08c0.86-0.6,1.24-0.39,1.47,0.53c0.03,0.11,0.1,0.21,0.14,0.32c0.58,1.62,1.89,2.02,3.32,0.97
	c0.72-0.53,1.39-1.13,2.08-1.7c0.49-0.4,2.19,0.14,2.6,0.78c0.34,0.52,0.74,1,1.12,1.49c0.33-0.5,0.7-0.97,0.99-1.49
	c0.43-0.77,0.79-0.69,1.26-0.03c1.01,1.42,2.62,1.29,3.52-0.27c0.56-0.97,0.74-0.93,1.48-0.15c0.64,0.67,1.43,1.22,2.21,1.74
	c0.17,0.12,0.73,0.02,0.82-0.14c1.03-1.72,2.37-0.66,3.29-0.14c1.06,0.6,1.56,0.58,2.07-0.46c0.52-1.06,1.52-0.66,2.26-0.52
	c0.39,0.08,0.65,0.87,0.94,1.35c0.2,0.34,0.32,0.73,0.53,1.06c0.46,0.73,1,1.42,1.41,2.18c0.1,0.2-0.1,0.66-0.29,0.89
	c-0.81,0.98-0.97,2.45-0.2,3.45c0.64,0.83,0.31,1.2-0.46,1.58c-0.39,0.19-0.69,0.54-1.04,0.82c0.35,0.31,0.7,0.62,1.05,0.94
	c0.27,0.24,0.53,0.49,0.8,0.74c-0.29,0.21-0.57,0.46-0.88,0.62c-0.37,0.19-0.88,0.22-1.15,0.5c-0.23,0.23-0.4,0.88-0.26,1.06
	c0.9,1.09,0.96,2.38,1.1,3.67c0.05,0.51,0.13,1.12,0.44,1.46c0.65,0.73,0.49,1.14-0.21,1.68c-0.82,0.62-0.75,1.01,0.13,1.54
	c1.22,0.73,1.25,2.45-0.04,3.09c-1.05,0.52-1.52,1.1-1.01,2.24c0.07,0.16,0.07,0.4,0.01,0.57c-0.43,1.23-0.25,2.16,1.1,2.69
	c0.13,0.05,0.19,0.78,0.02,1.02c-0.86,1.21-0.89,1.19,0.36,2.04c0.22,0.15,0.4,0.35,0.78,0.69c-0.57,0.33-1.03,0.61-1.51,0.87
	c-0.96,0.52-1,0.8-0.16,1.47c1.19,0.95,1.2,2.52-0.04,3.41c-0.69,0.49-0.73,0.97-0.12,1.49c0.68,0.58,0.67,1.13,0.11,1.78
	c-0.42,0.48-0.51,0.92,0.23,1.27c1.93,0.9,1.93,1.57,0.01,3.09c-0.32-0.23-0.62-0.56-0.99-0.71c-0.34-0.13-0.91-0.24-1.13-0.06
	c-1.19,0.99-2.42,0.65-3.71,0.35c-0.45-0.1-1.07-0.01-1.44,0.24c-1,0.69-2.53,0.68-3.3-0.24c-0.6-0.71-1.11-0.75-1.68-0.02
	c-0.64,0.82-1.13,0.64-1.51-0.23c-0.03-0.07-0.05-0.16-0.1-0.21c-0.26-0.3-0.54-0.59-0.81-0.89c-0.29,0.32-0.6,0.63-0.85,0.98
	C61.05,84.42,60.85,84.83,60.48,85.47"/>
<path class="st0" d="M75.59,20.95c-2.87,0.55-5.38,0.4-7.42-1.55c-0.51-0.49-0.89-1.51-0.74-2.15c0.09-0.41,1.27-0.84,1.94-0.81
	C72.27,16.54,73.92,18.53,75.59,20.95"/>
<path class="st0" d="M43.35,0c2.42,1.25,4.01,3.05,4.38,5.66c0.11,0.74-0.51,1.59-0.79,2.39c-0.78-0.32-1.81-0.43-2.3-1
	C42.92,5.03,42.62,2.65,43.35,0"/>
<path class="st0" d="M81.63,5.63c-1.12,2.28-2.5,4.22-4.93,4.86c-0.89,0.24-1.98-0.29-2.99-0.47c0.41-0.92,0.6-2.07,1.27-2.71
	C76.8,5.59,79.12,5.38,81.63,5.63"/>
<path class="st0" d="M5.1,50.18c1.8-2.32,3.79-3.89,6.7-3.64c0.64,0.05,1.52,0.59,1.75,1.13c0.17,0.4-0.36,1.39-0.85,1.75
	C10.42,51.12,7.92,51.28,5.1,50.18"/>
<path class="st0" d="M89.79,54.3c-2.47,0.41-4.67,0.13-6.39-1.56c-0.58-0.57-0.64-1.66-0.94-2.51c0.84-0.15,1.73-0.56,2.5-0.4
	C87.37,50.35,88.82,52.03,89.79,54.3"/>
<path class="st0" d="M86.73,29.04c-0.4,2.8-1.72,4.86-4.23,5.95c-0.63,0.28-1.52-0.04-2.29-0.08c0.05-0.84-0.19-1.87,0.2-2.5
	C81.82,30.19,84.02,29.2,86.73,29.04"/>
<path class="st0" d="M41.98,17.01c-1.85,2.17-3.97,3.48-6.76,3.21c-0.66-0.06-1.74-0.67-1.79-1.11c-0.07-0.64,0.45-1.64,1.03-2.01
	C36.83,15.55,39.33,15.93,41.98,17.01"/>
<path class="st0" d="M91.4,59.6c-1.64,2.24-3.51,3.79-6.31,3.59c-0.59-0.04-1.54-0.47-1.61-0.86c-0.11-0.58,0.23-1.5,0.69-1.88
	C86.3,58.72,88.72,58.72,91.4,59.6"/>
<path class="st0" d="M59.61,11.18c-0.19,2.73-1.1,5.05-3.57,6.44c-0.56,0.31-1.58,0.36-2.07,0.04c-0.38-0.25-0.49-1.32-0.33-1.92
	C54.1,13.88,56.58,11.18,59.61,11.18"/>
<path class="st0" d="M15.6,57.94c2.44,1.59,4.13,3.63,4.14,6.65c0,0.68-0.49,1.66-1.04,1.95c-0.43,0.23-1.47-0.23-1.96-0.68
	C15.27,64.46,14.04,60.76,15.6,57.94"/>
<path class="st0" d="M27.73,27.46c0.02,0.44,0.04,0.81,0.04,1.19c0.01,0.75-0.19,0.94-0.93,0.95c-0.11,0-0.22,0.03-0.29,0.04
	c0-1.77,0-3.48,0-5.28c0.14,0.01,0.33,0.04,0.52,0.05c0.46,0.03,0.68,0.26,0.71,0.72c0,0.01,0,0.03,0,0.04
	c-0.17,0.75,0.21,1.1,0.88,1.3"/>
<path class="st0" d="M0.59,23.28c0.39-0.06,0.79-0.16,1.18-0.17c0.92-0.02,1.83-0.01,2.76-0.01c0,0.44-0.01,0.84-0.01,1.29
	c-0.1,0-0.22,0.01-0.34,0.01c-0.71,0-1.42-0.01-2.13,0.01c-0.49,0.01-0.74,0.24-0.74,0.72c-0.01,1.68-0.01,3.36,0,5.04
	c0,0.5,0.25,0.72,0.77,0.73c0.8,0.01,1.59,0.01,2.39,0.01c0.01,0,0.02,0.01,0.06,0.03c-0.02,0.4-0.05,0.81-0.07,1.27
	c-0.49,0-1.06,0-1.63,0c-0.45,0-0.91,0.03-1.36-0.01c-0.31-0.02-0.61-0.14-0.91-0.21c-0.1-0.1-0.21-0.21-0.31-0.31
	c-0.07-0.44-0.2-0.88-0.21-1.32c-0.02-1.82-0.02-3.64,0-5.47c0-0.39,0.1-0.79,0.16-1.18C0.31,23.55,0.45,23.42,0.59,23.28"/>
<path class="st0" d="M15.35,20.53c-0.03,0.14-0.08,0.27-0.08,0.41c-0.01,1.54-0.01,3.09,0,4.63c0.01,1.35,1.03,2.24,2.3,2.03
	c0.77-0.13,1.43-0.8,1.54-1.57c0.03-0.22,0.04-0.44,0.04-0.66c0-1.6,0-3.21,0-4.76c0.8-0.03,1.58-0.1,2.36-0.06
	c0.57,0.03,0.99,0.53,1.05,1.11c0.01,0.15,0.01,0.29,0.01,0.44c0,3.7,0,7.4,0,11.1c0,1.12-0.47,1.58-1.59,1.58
	c-4.52,0-9.05,0-13.57,0c-1.09,0-1.57-0.48-1.57-1.57c0-3.74,0-7.48,0-11.22c0-0.99,0.51-1.5,1.49-1.5c2.54,0,5.07,0,7.61,0
	C15.04,20.5,15.14,20.51,15.35,20.53 M8.62,26.68c0.36,0.12,0.68,0.29,1,0.3c0.86,0.04,1.71,0.03,2.57,0.01
	c0.76-0.02,1.29-0.54,1.32-1.3c0.02-0.65,0.02-1.3,0-1.95c-0.03-0.75-0.54-1.27-1.28-1.29c-0.87-0.02-1.74-0.02-2.61,0
	c-0.77,0.02-1.28,0.54-1.3,1.31c-0.01,0.64-0.03,1.28,0.01,1.91C8.35,26,8.51,26.31,8.62,26.68 M8.62,32.54
	c0.38,0.11,0.7,0.27,1.02,0.28c0.84,0.04,1.69,0.02,2.54,0.01c0.79-0.01,1.31-0.53,1.33-1.33c0.02-0.61,0.01-1.23,0-1.84
	c-0.02-0.82-0.56-1.36-1.37-1.37c-0.82-0.01-1.64-0.01-2.46,0c-0.81,0.01-1.34,0.53-1.35,1.34c-0.01,0.62-0.04,1.25,0.01,1.88
	C8.35,31.84,8.51,32.16,8.62,32.54"/>
<path class="st0" d="M11.48,19.17c-0.56,0-0.97,0.01-1.41,0.01c0.06-1.22-0.18-2.46,0.39-3.62c1.13-2.31,4.06-2.91,5.99-1.21
	c0.89,0.78,1.38,1.75,1.4,2.92c0.02,2.77,0.01,5.54,0.01,8.31c0,0.47-0.25,0.74-0.63,0.75c-0.4,0-0.65-0.3-0.65-0.81
	c0-2.68-0.01-5.37,0-8.06c0-1-0.35-1.82-1.2-2.38c-1.62-1.06-3.84,0.02-3.96,1.96C11.35,17.75,11.45,18.46,11.48,19.17"/>
<path class="st0" d="M23.93,30.88c0-2.6-0.01-5.17-0.01-7.89c0.12,0.03,0.26,0.1,0.4,0.1c0.62,0.02,0.85,0.23,0.85,0.84
	c0,0.7,0,1.4,0,2.1c0,1.27,0,2.55,0,3.82c0,0.86-0.17,1.04-1.03,1.03C24.08,30.89,24,30.89,23.93,30.88"/>
<path class="st0" d="M9.68,25.64c0-0.62,0-1.24,0-1.84c0.81,0,1.65-0.01,2.47-0.01c0,0.61-0.01,1.24-0.01,1.85
	C11.34,25.65,10.49,25.65,9.68,25.64"/>
<path class="st0" d="M12.15,29.7c0.01,0.57,0.01,1.19,0.02,1.79c-0.84,0-1.68,0-2.49-0.01c0-0.59,0.01-1.21,0.01-1.79
	C10.47,29.7,11.32,29.7,12.15,29.7"/>
<path class="st0" d="M27.35,25.58h49.5c0.79,0,1.43,0.64,1.43,1.43s-0.64,1.43-1.43,1.43h-49.5"/>
<path class="st0" d="M31.97,31.21c-0.74,0-1.35-0.6-1.35-1.35v-5.66c0-0.74,0.6-1.35,1.35-1.35c0.74,0,1.35,0.6,1.35,1.35v5.66
	C33.32,30.61,32.71,31.21,31.97,31.21"/>
<path class="st0" d="M36.01,31.21c-0.74,0-1.35-0.6-1.35-1.35v-5.66c0-0.74,0.6-1.35,1.35-1.35c0.74,0,1.35,0.6,1.35,1.35v5.66
	C37.36,30.61,36.76,31.21,36.01,31.21"/>
<path class="st0" d="M40.05,31.21c-0.74,0-1.35-0.6-1.35-1.35v-5.66c0-0.74,0.6-1.35,1.35-1.35c0.74,0,1.35,0.6,1.35,1.35v5.66
	C41.4,30.61,40.8,31.21,40.05,31.21"/>
<path class="st0" d="M44.1,31.21c-0.74,0-1.35-0.6-1.35-1.35v-5.66c0-0.74,0.6-1.35,1.35-1.35c0.74,0,1.35,0.6,1.35,1.35v5.66
	C45.44,30.61,44.84,31.21,44.1,31.21"/>
<path class="st0" d="M48.14,31.21c-0.74,0-1.35-0.6-1.35-1.35v-5.66c0-0.74,0.6-1.35,1.35-1.35c0.74,0,1.35,0.6,1.35,1.35v5.66
	C49.49,30.61,48.88,31.21,48.14,31.21"/>
<path class="st0" d="M52.18,31.21c-0.74,0-1.35-0.6-1.35-1.35v-5.66c0-0.74,0.6-1.35,1.35-1.35c0.74,0,1.35,0.6,1.35,1.35v5.66
	C53.53,30.61,52.93,31.21,52.18,31.21"/>
<path class="st0" d="M56.22,31.21c-0.74,0-1.35-0.6-1.35-1.35v-5.66c0-0.74,0.6-1.35,1.35-1.35c0.74,0,1.35,0.6,1.35,1.35v5.66
	C57.57,30.61,56.97,31.21,56.22,31.21"/>
<path class="st0" d="M60.27,31.21c-0.74,0-1.35-0.6-1.35-1.35v-5.66c0-0.74,0.6-1.35,1.35-1.35c0.74,0,1.35,0.6,1.35,1.35v5.66
	C61.61,30.61,61.01,31.21,60.27,31.21"/>
<path class="st0" d="M64.31,31.21c-0.74,0-1.35-0.6-1.35-1.35v-5.66c0-0.74,0.6-1.35,1.35-1.35c0.74,0,1.35,0.6,1.35,1.35v5.66
	C65.66,30.61,65.05,31.21,64.31,31.21"/>
<path class="st0" d="M68.35,31.21c-0.74,0-1.35-0.6-1.35-1.35v-5.66c0-0.74,0.6-1.35,1.35-1.35c0.74,0,1.35,0.6,1.35,1.35v5.66
	C69.7,30.61,69.1,31.21,68.35,31.21"/>
<path class="st0" d="M72.4,31.21c-0.74,0-1.35-0.6-1.35-1.35v-5.66c0-0.74,0.6-1.35,1.35-1.35c0.74,0,1.35,0.6,1.35,1.35v5.66
	C73.74,30.61,73.14,31.21,72.4,31.21"/>
</svg>
