<?xml version="1.0" encoding="utf-8"?>
<!-- Generator: Adobe Illustrator 23.0.2, SVG Export Plug-In . SVG Version: 6.00 Build 0)  -->
<svg version="1.1" id="Layer_1" xmlns="http://www.w3.org/2000/svg" xmlns:xlink="http://www.w3.org/1999/xlink" x="0px" y="0px"
	 viewBox="0 0 95.94 51.47" style="enable-background:new 0 0 95.94 51.47;" xml:space="preserve">
<path d="M31.07,30.03c-5.92,0-10.72,4.8-10.72,10.72c0,5.92,4.8,10.72,10.72,10.72c5.92,0,10.72-4.8,10.72-10.72
	C41.78,34.83,36.99,30.03,31.07,30.03 M31.07,45.56c-2.65,0-4.81-2.16-4.81-4.81c0-2.65,2.16-4.8,4.81-4.8
	c2.65,0,4.81,2.15,4.81,4.8C35.87,43.4,33.72,45.56,31.07,45.56"/>
<path d="M56.69,30.03c-5.92,0-10.72,4.8-10.72,10.72c0,5.92,4.8,10.72,10.72,10.72c5.92,0,10.72-4.8,10.72-10.72
	C67.41,34.83,62.61,30.03,56.69,30.03 M56.69,45.56c-2.65,0-4.81-2.16-4.81-4.81c0-2.65,2.16-4.8,4.81-4.8
	c2.65,0,4.81,2.15,4.81,4.8C61.5,43.4,59.34,45.56,56.69,45.56"/>
<path d="M18.44,15.09c1.01,0,1.93-0.61,2.64,0l3.19-0.85V0H12.62v11.22l3.19,3.64C16.52,14.25,17.44,15.09,18.44,15.09 M13.76,2.65
	h9.36v1.15h-9.36V2.65z M13.76,6.08h9.36v1.15h-9.36V6.08z"/>
<path d="M93.41,30.58H86.3c-1.4,0-2.53,1.13-2.53,2.53v1.97h-3.24l-5.11-6.52H68.8V11.86h-7.25v0.01H19.95V7.45h-7.28v14.92L0,37.36
	v4.3h16.16c-0.02-0.3-0.03-0.6-0.03-0.9c0-8.24,6.7-14.94,14.94-14.94c5.46,0,10.24,2.95,12.84,7.34c2.6-4.4,7.4-7.36,12.89-7.36
	c6.02,0,11.21,3.56,13.58,8.68h2.16L77.65,41h6.12V41h12.17v-7.89C95.94,31.72,94.81,30.58,93.41,30.58"/>
</svg>
