<?xml version="1.0" encoding="utf-8"?>
<!-- Generator: Adobe Illustrator 23.0.2, SVG Export Plug-In . SVG Version: 6.00 Build 0)  -->
<svg version="1.1" id="Layer_1" xmlns="http://www.w3.org/2000/svg" xmlns:xlink="http://www.w3.org/1999/xlink" x="0px" y="0px"
	 viewBox="0 0 89.53 47.84" style="enable-background:new 0 0 89.53 47.84;" xml:space="preserve">
<path d="M26.68,22.56L26.68,22.56l-3.15-0.02c-0.41,0-0.75-0.34-0.74-0.75c0-0.41,0.34-0.75,0.75-0.75h0l3.14,0.02
	c0.41,0,0.75,0.34,0.74,0.75C27.43,22.22,27.09,22.56,26.68,22.56"/>
<path d="M34.09,25.56c2.06,0,3.73,1.67,3.73,3.73c0,2.05-1.67,3.73-3.73,3.73c-2.05,0-3.73-1.67-3.73-3.73
	C30.36,27.23,32.03,25.56,34.09,25.56"/>
<path d="M4.48,17.79c2.47,0,4.47,2,4.47,4.47c0,0.31-0.03,0.61-0.09,0.9c0.5,0.33,0.89,0.85,1.05,1.48
	c0.34,1.35-0.48,2.72-1.83,3.05c-1.06,0.27-2.14-0.18-2.71-1.05c-0.29,0.06-0.59,0.09-0.9,0.09C2,26.74,0,24.73,0,22.26
	C0,19.79,2,17.79,4.48,17.79"/>
<path d="M7.6,28.94c-0.67,0-1.21,0.54-1.21,1.21c0,0.67,0.54,1.21,1.21,1.21c0.67,0,1.21-0.54,1.21-1.21
	C8.82,29.48,8.27,28.94,7.6,28.94"/>
<path d="M8.96,12.26c-1.39,0-2.52,1.13-2.52,2.52s1.13,2.52,2.52,2.52c1.39,0,2.52-1.13,2.52-2.52S10.35,12.26,8.96,12.26"/>
<path d="M2.96,13.98c-0.67,0-1.21,0.54-1.21,1.21c0,0.67,0.54,1.21,1.21,1.21c0.67,0,1.21-0.54,1.21-1.21
	C4.18,14.52,3.63,13.98,2.96,13.98"/>
<path d="M80.63,20.72c-0.13,0-0.27,0-0.41-0.01l-0.67-0.04L79.52,20c-0.12-2.19,0.71-4.33,2.26-5.88c1.46-1.46,3.4-2.27,5.47-2.27
	h0.07l1.15-1.15l1.06,1.06l-1.15,1.15c0.02,2.07-0.8,4.07-2.27,5.54C84.64,19.92,82.7,20.72,80.63,20.72"/>
<path d="M71.78,15.87l-0.15,0.3l-0.32-0.11c-1.5-0.53-2.71-1.68-3.32-3.15c-0.52-1.25-0.56-2.64-0.14-3.91l-0.65-1.57l1.38-0.57
	l0.65,1.57c1.19,0.6,2.15,1.62,2.66,2.87C72.51,12.77,72.46,14.44,71.78,15.87"/>
<path d="M80.99,10.02l-1.15-1.15h-0.07c-2.07,0-4.01-0.81-5.47-2.27c-1.55-1.55-2.37-3.69-2.26-5.88l0.04-0.67l0.67-0.04
	C72.88,0,73.02,0,73.16,0c2.07,0,4.01,0.8,5.47,2.27c1.47,1.47,2.29,3.47,2.27,5.54l1.15,1.15L80.99,10.02z"/>
<path d="M10.48,30.48c-0.21,0.78-0.1,1.62,0.32,2.31c0.41,0.7,1.09,1.19,1.88,1.38l4.45,1.06c0.69,2.01,1.72,3.85,3.02,5.47
	l-3.32,3.32c-0.88,0.88-0.88,2.3,0,3.17c0.44,0.44,1.01,0.66,1.59,0.66c0.57,0,1.15-0.22,1.59-0.66l3.38-3.38
	c2.99,2.23,6.69,3.56,10.7,3.56c4.13,0,7.94-1.4,10.98-3.76l3.59,3.59c0.44,0.44,1.01,0.66,1.59,0.66c0.57,0,1.15-0.22,1.58-0.66
	c0.88-0.88,0.88-2.3,0-3.17l-3.59-3.59c1.75-2.25,2.78-4.98,3.5-7.86c0.6-2.42,1.13-4.43,1.13-4.43l3.1,0.79l0.37-1.45l8.83,2.26
	l-0.37,1.45l10.07,2.58l0.37-1.45l12.07,3.09l2.23-8.7l-12.07-3.09l0.37-1.45L67.76,19.6l-0.37,1.45l-8.83-2.26l0.37-1.45
	l-7.71-1.98l1.06-3.88c1.29-0.05,2.44-0.94,2.78-2.25c0.41-1.6-0.56-3.23-2.16-3.64l-2.75-0.71C49.43,4.7,37.17,1.5,32.72,0.45
	c-3.48-0.83-7.06-0.49-10.08,0.94c-3.24,1.53-5.48,4.14-6.32,7.34C14.74,14.76,10.52,30.32,10.48,30.48 M53.17,24.29
	c0,0.01,0,0.01-0.01,0.02L53.17,24.29L53.17,24.29 M40.64,9.98h4.29l-0.96,3.52l-4.82-1.24c-1.61-0.47-3.31-0.73-5.07-0.73
	c-5.46,0-10.36,2.46-13.65,6.32l-0.34-0.08c0.79-2.93,1.52-5.68,2.01-7.53c0.84-3.2,4.98-4.98,9.23-3.97
	c1.74,0.41,4.78,1.18,7.84,1.96c-0.02,0.08-0.02,0.17-0.02,0.26C39.15,9.32,39.82,9.98,40.64,9.98L40.64,9.98z M21.94,22.59
	c-0.44-1.75,0.63-3.52,2.37-3.96c0.26-0.07,0.53-0.1,0.8-0.1c1.5,0,2.8,1.02,3.16,2.47c0.21,0.85,0.08,1.72-0.37,2.47
	c-0.45,0.75-1.16,1.28-2.01,1.49c-0.26,0.07-0.53,0.1-0.8,0.1C23.61,25.07,22.31,24.05,21.94,22.59 M33.13,20.54l-1.27-0.37
	c-0.8-0.23-1.25-1.06-1.03-1.85c0.23-0.79,1.06-1.26,1.85-1.03l4.06,1.16c0.79,0.23,1.25,1.06,1.02,1.85
	c-0.19,0.66-0.79,1.08-1.44,1.08c-0.14,0-0.28-0.02-0.41-0.06l-1.34-0.38l-0.49,1.52l-1.42-0.47L33.13,20.54z M35.43,24.23
	c2.23,0.59,3.88,2.63,3.88,5.05c0,2.88-2.34,5.22-5.22,5.22c-2.88,0-5.22-2.34-5.22-5.22c0-0.44,0.05-0.87,0.16-1.27
	c0-0.01,0-0.01,0-0.02c0.05-0.2,1.43-4.43,1.43-4.43c0.12-0.39,0.53-0.6,0.92-0.49L35.43,24.23 M46.5,16.97
	c0.67,0,1.21,0.54,1.21,1.21s-0.54,1.21-1.21,1.21s-1.21-0.54-1.21-1.21S45.83,16.97,46.5,16.97 M51.35,25.24l-9.91-2.42
	c-0.4-0.1-0.65-0.5-0.55-0.91c0.1-0.4,0.5-0.65,0.9-0.55l9.93,2.43L51.35,25.24z M42.86,31.37c-0.4-0.1-0.64-0.51-0.54-0.91
	c0.1-0.4,0.51-0.64,0.91-0.54l6.47,1.64l-0.38,1.45L42.86,31.37 M42.15,27.09c-0.4-0.1-0.65-0.51-0.55-0.91
	c0.1-0.4,0.51-0.64,0.91-0.54l8.2,2.04l-0.38,1.45L42.15,27.09z M26.56,40.64c-0.2-0.17-0.4-0.36-0.59-0.55l1.06-1.06
	c0.19,0.19,0.39,0.38,0.6,0.55c3.8,3.24,9.48,3.16,13.2-0.23c0.11-0.1,0.23-0.21,0.34-0.32l1.06,1.06
	c-0.11,0.11-0.22,0.22-0.34,0.33c-2.19,2.02-4.99,3.03-7.78,3.03C31.4,43.45,28.71,42.51,26.56,40.64 M22.44,34.35
	c-0.61-0.07-1.08-0.58-1.08-1.2c0-0.43,0.23-0.81,0.57-1.03c0.19-0.12,0.41-0.18,0.64-0.18c0.67,0,1.21,0.54,1.21,1.21
	c0,0.67-0.54,1.21-1.21,1.21C22.52,34.36,22.48,34.35,22.44,34.35 M19.69,27.21c0.2-0.8,1.01-1.29,1.82-1.09l4.79,1.2
	c0.8,0.2,1.29,1.01,1.09,1.81L19.69,27.21z M12.72,31.61c-0.1-0.17-0.13-0.38-0.08-0.57l2.53-9.39c0.11-0.39,0.51-0.63,0.91-0.53
	l2.52,0.64l-0.37,1.45l-1.8-0.46l-2.15,7.95l1.78,0.45l-0.37,1.45l-2.52-0.64C12.99,31.91,12.82,31.78,12.72,31.61"/>
</svg>
