<?xml version="1.0" encoding="utf-8"?>
<!-- Generator: Adobe Illustrator 23.0.2, SVG Export Plug-In . SVG Version: 6.00 Build 0)  -->
<svg version="1.1" id="Layer_1" xmlns="http://www.w3.org/2000/svg" xmlns:xlink="http://www.w3.org/1999/xlink" x="0px" y="0px"
	 viewBox="0 0 80 48" style="enable-background:new 0 0 80 48;" xml:space="preserve">
<path d="M70.67,29.33c-1.21,0-2.36,0.25-3.41,0.67l10.07-16.67h-48v8.7l-13.42-4.99c-0.16-0.88-0.71-1.67-1.61-2.02L3.64,10.85
	c-1.38-0.54-2.92,0.14-3.46,1.51c-0.54,1.37,0.14,2.92,1.51,3.46l10.66,4.17c0.32,0.12,0.65,0.18,0.97,0.18
	c0.62,0,1.2-0.24,1.68-0.62l16.98,6.31l3.6,16.8h8.4l7.45-9.57l10.08,3.75c-0.12,0.59-0.18,1.2-0.18,1.83
	c0,5.16,4.18,9.33,9.33,9.33c5.16,0,9.33-4.18,9.33-9.33C80,33.51,75.83,29.33,70.67,29.33 M42.68,40h-4.94l-2.79-13.03l13.86,5.15
	L42.68,40z M70.67,42.67c-2.21,0-4-1.79-4-4c0-2.21,1.79-4,4-4c2.21,0,4,1.79,4,4C74.67,40.88,72.88,42.67,70.67,42.67"/>
<path d="M71.51,10.67c-1.1-3.1-4.03-5.33-7.51-5.33c-2.08,0-3.96,0.82-5.39,2.12C58.33,3.3,54.9,0,50.67,0
	c-3.8,0-6.96,2.65-7.78,6.19C42.06,5.65,41.07,5.33,40,5.33c-2.95,0-5.33,2.39-5.33,5.33H71.51z"/>
</svg>
