<?xml version="1.0" encoding="utf-8"?>
<!-- Generator: Adobe Illustrator 23.0.2, SVG Export Plug-In . SVG Version: 6.00 Build 0)  -->
<svg version="1.1" id="Layer_1" xmlns="http://www.w3.org/2000/svg" xmlns:xlink="http://www.w3.org/1999/xlink" x="0px" y="0px"
	 viewBox="0 0 115 115" style="enable-background:new 0 0 115 115;" xml:space="preserve">
<style type="text/css">
	.st0{fill:#6AAF08;}
	.st1{fill:#FFFFFF;}
</style>
<circle class="st0" cx="57.5" cy="57.5" r="57.5"/>
<g>
	<path class="st1" d="M34.28,66.35c-4.26,0-7.88,3.49-7.88,7.88c0,4.26,3.49,7.88,7.88,7.88c4.26,0,7.88-3.49,7.88-7.88
		C42.03,69.84,38.55,66.35,34.28,66.35"/>
	<path class="st1" d="M59.86,66.35c-4.26,0-7.88,3.49-7.88,7.88c0,4.26,3.49,7.88,7.88,7.88c4.39,0,7.88-3.49,7.88-7.88
		C67.74,69.84,64.25,66.35,59.86,66.35"/>
	<path class="st1" d="M97.65,80.94c-7.49-5.94-10.08-14.6-7.49-25.58c0.13-0.39,0-0.78-0.26-1.16c-0.26-0.26-0.65-0.52-1.03-0.52
		c-4,0-7.36,3.36-7.36,7.36v6.37v0.13l-7-3.23v-2.84c0-0.26-0.12-0.52-0.25-0.78l-4.18-5.68c-0.25-0.39-0.61-0.52-0.98-0.52h-4.6
		v-7.14l2.72-1.81c0.65-0.39,0.65-1.29,0.26-1.81c-0.39-0.65-1.29-0.78-1.81-0.26l-2.97,2.32c-0.39,0.26-1.2,1.03-1.2,1.03v7.66
		h-4.27l-5.9-22.11c-0.13-0.51-0.63-0.89-1.25-0.89H32.76c-0.63,0-1.26,0.51-1.26,1.27V46.5h-7.38c-2.07,0-3.62,1.7-3.62,3.65v5.35
		h-1.72c-0.77,0-1.28,0.64-1.28,1.27v17.43c0,0.71,0.58,1.29,1.29,1.29h5.64c0-0.38-0.13-0.89-0.13-1.27
		c0-5.6,4.62-10.32,10.4-10.32c5.78,0,10.4,4.59,10.4,10.32c0,0.38,0,0.89-0.13,1.27h5.01c0-0.38-0.13-0.89-0.13-1.27
		c0-5.6,4.62-10.32,10.4-10.32c5.65,0,10.4,4.59,10.4,10.32c0,0.38,0,0.89-0.13,1.27h2.7c0.64,0,1.28-0.51,1.28-1.27v-6.46
		l7.75,3.36c0.65,2.97,2.07,5.55,4.13,7.75c2.84,2.84,6.72,4.39,10.72,4.39c0.52,0,1.03-0.39,1.16-0.9
		c0.39-0.52,0.13-1.03-0.26-1.42 M30.62,54.5H22.5v-5.02c0-0.61,0.49-0.98,0.98-0.98h7.02v6H30.62z M33.5,55.5v-21h15.69l5.7,21
		H33.5z"/>
</g>
</svg>
