<?xml version="1.0" encoding="utf-8"?>
<!-- Generator: Adobe Illustrator 23.0.2, SVG Export Plug-In . SVG Version: 6.00 Build 0)  -->
<svg version="1.1" id="Layer_1" xmlns="http://www.w3.org/2000/svg" xmlns:xlink="http://www.w3.org/1999/xlink" x="0px" y="0px"
	 viewBox="0 0 115 115" style="enable-background:new 0 0 115 115;" xml:space="preserve">
<style type="text/css">
	.st0{fill:#6AAF08;}
	.st1{fill:#FFFFFF;}
</style>
<circle class="st0" cx="57.5" cy="57.5" r="57.5"/>
<g>
	<path class="st1" d="M75.21,65.91c-0.52,1.27-1.07,2.53-1.61,3.8c-0.02,0.04-0.05,0.07-0.05,0.11c-0.17,0.87-0.69,1.15-1.55,1.02
		c-0.43-0.07-0.87-0.01-1.35-0.01c0,0.42-0.02,0.79,0.01,1.16c0.02,0.31-0.1,0.4-0.4,0.4c-1.43-0.01-2.85-0.01-4.28-0.01
		c-2.74,0-5.49-0.01-8.23,0.01c-0.38,0-0.49-0.11-0.49-0.49c0.02-1.07,0-1.07-1.06-1.07c-0.23,0-0.47,0-0.7,0c-0.73,0-0.73,0-1-0.67
		c-1.09-2.58-2.17-5.17-3.27-7.75c-1.11-2.6-2.25-5.19-3.37-7.79c-1.07-2.49-2.13-4.98-3.2-7.47c-0.5-1.18-1.01-2.35-1.51-3.53
		c-0.02-0.05-0.02-0.1-0.03-0.19h41.73c-3.07,7.18-6.13,14.33-9.19,21.47"/>
	<path class="st1" d="M23.61,31.38V30.2c0.14-0.01,0.28-0.02,0.42-0.02c1.51,0,3.02,0,4.53,0c0.6,0,0.62-0.03,0.51-0.73H28.6
		c-2.37,0-4.75-0.01-7.12,0.01c-0.37,0-0.48-0.12-0.46-0.47c0.02-0.44,0.03-0.88,0-1.32c-0.02-0.35,0.12-0.43,0.45-0.43
		c3.87,0.01,7.74,0.01,11.61,0c0.29,0,0.45,0.08,0.56,0.34c0.43,1,0.87,1.99,1.31,2.99c0.62,1.41,1.23,2.82,1.84,4.23
		c0.88,2.02,1.76,4.04,2.64,6.06c0.7,1.6,1.41,3.19,2.11,4.78c0.69,1.56,1.37,3.11,2.05,4.67c0.62,1.41,1.23,2.82,1.84,4.23
		c0.88,2.02,1.76,4.04,2.64,6.06c0.7,1.59,1.41,3.18,2.11,4.78c0.37,0.83,0.71,1.68,1.09,2.51c0.11,0.24,0.31,0.43,0.45,0.64
		c0.1,0.16,0.26,0.33,0.26,0.49c0,1.05,0.72,1.83,0.98,2.77c0.89-0.35,1.45-0.18,1.63,0.45c0.16,0.56-0.2,1.07-0.96,1.24
		c0.39,0.69,0.79,1.34,1.13,2.02c0.13,0.27,0.16,0.61,0.17,0.92c0.01,0.25-0.08,0.51-0.08,0.76c-0.01,1.19-0.01,2.38-0.01,3.63h1.82
		c0,0.68,0.01,1.31-0.01,1.93c0,0.09-0.16,0.24-0.24,0.24c-1.22,0.02-2.43,0.01-3.69,0.01c-0.01-0.18-0.02-0.33-0.02-0.48
		c0-1.59-0.04-3.18,0.01-4.77c0.03-0.86-0.21-1.62-0.55-2.39c-1-2.22-1.95-4.46-2.93-6.7c-0.78-1.78-1.57-3.56-2.35-5.34
		c-0.95-2.17-1.88-4.35-2.83-6.51c-0.78-1.78-1.58-3.56-2.36-5.34c-0.87-1.98-1.72-3.97-2.58-5.95c-0.87-1.98-1.75-3.96-2.62-5.94
		c-1.11-2.53-2.2-5.07-3.31-7.6c-0.33-0.75-0.67-1.49-1-2.24c-0.08-0.18-0.18-0.33-0.43-0.29c-0.08,0.01-0.22-0.02-0.25-0.08
		c-0.16-0.3-0.4-0.27-0.63-0.14c-0.24,0.14-0.55,0.22-0.51,0.64c0.04,0.41,0.01,0.82,0.01,1.23c0,0.2-0.04,0.34-0.29,0.34
		c-2.11-0.01-4.22-0.01-6.34-0.02C23.72,31.42,23.68,31.4,23.61,31.38"/>
	<path class="st1" d="M69.78,81.91c0.05,3.18-2.62,5.86-5.86,5.84c-3.18-0.02-5.81-2.65-5.81-5.86c0.01-3.14,2.6-5.83,5.87-5.82
		C67.28,76.09,69.85,78.85,69.78,81.91 M61.23,81.87c-0.02,1.49,1.17,2.75,2.64,2.78c1.55,0.03,2.79-1.15,2.83-2.68
		c0.03-1.49-1.21-2.83-2.71-2.81C62.49,79.17,61.26,80.29,61.23,81.87"/>
	<path class="st1" d="M91.01,77.16c0.74-0.01,1.42,0.67,1.42,1.41c0,0.76-0.64,1.4-1.4,1.41c-0.78,0.01-1.4-0.61-1.4-1.39
		C89.62,77.81,90.25,77.17,91.01,77.16"/>
	<path class="st1" d="M38.29,78.6c-0.01,0.77-0.66,1.39-1.42,1.38c-0.77-0.01-1.41-0.66-1.4-1.42c0.01-0.73,0.71-1.41,1.44-1.4
		C37.66,77.17,38.31,77.84,38.29,78.6"/>
	<path class="st1" d="M43.09,86.22c0,0.77-0.64,1.41-1.42,1.41c-0.77,0-1.4-0.64-1.4-1.41c0-0.76,0.65-1.42,1.41-1.41
		C42.44,84.81,43.09,85.47,43.09,86.22"/>
	<path class="st1" d="M84.83,86.21c0-0.77,0.63-1.41,1.4-1.41c0.77,0,1.39,0.64,1.39,1.41c0,0.79-0.61,1.4-1.39,1.4
		C85.45,87.63,84.83,87,84.83,86.21"/>
	<path class="st1" d="M36.7,70.15c0.06,0.78-0.61,1.4-1.38,1.41c-0.79,0.01-1.39-0.58-1.39-1.39c0-0.8,0.6-1.42,1.37-1.42
		C36.07,68.75,36.69,69.37,36.7,70.15"/>
	<path class="st1" d="M93.98,70.19c0,0.63-0.7,1.37-1.31,1.37c-0.84,0.01-1.47-0.6-1.46-1.43c0.01-0.77,0.61-1.38,1.37-1.39
		C93.38,68.74,93.99,69.37,93.98,70.19"/>
	<path class="st1" d="M65.04,75.28c-0.67,0-1.34,0.01-2.01-0.01c-0.06,0-0.15-0.15-0.16-0.23c-0.01-0.6-0.01-1.2-0.01-1.84h2.17
		V75.28z"/>
	<path class="st1" d="M49.03,81.17c0,0.66-0.5,1.15-1.17,1.15c-0.65,0-1.16-0.51-1.16-1.17c0-0.66,0.52-1.17,1.18-1.16
		C48.54,80,49.04,80.51,49.03,81.17"/>
	<path class="st1" d="M44.35,69.72c-0.01,0.66-0.52,1.16-1.17,1.15c-0.64-0.01-1.17-0.55-1.16-1.19c0.01-0.62,0.59-1.19,1.19-1.16
		C43.77,68.55,44.41,68.98,44.35,69.72"/>
	<path class="st1" d="M45.31,74.4c0.69-0.07,1.18,0.65,1.16,1.17c-0.02,0.64-0.51,1.12-1.17,1.12c-0.65,0.01-1.19-0.52-1.19-1.15
		C44.12,74.9,44.64,74.4,45.31,74.4"/>
	<path class="st1" d="M82.62,74.4c0.74-0.06,1.18,0.64,1.17,1.16c-0.01,0.64-0.51,1.13-1.16,1.13c-0.65,0.01-1.21-0.51-1.2-1.14
		C81.44,75.03,81.87,74.34,82.62,74.4"/>
	<path class="st1" d="M85.85,69.69c0.01,0.67-0.49,1.18-1.14,1.18c-0.65,0-1.13-0.48-1.15-1.13c-0.02-0.67,0.47-1.2,1.12-1.22
		C85.32,68.5,85.85,69.03,85.85,69.69"/>
	<path class="st1" d="M78.89,81.17C78.88,80.51,79.37,80,80.02,80c0.62-0.01,1.16,0.49,1.17,1.07c0.01,0.56-0.51,1.24-0.95,1.25
		C79.38,82.33,78.9,81.92,78.89,81.17"/>
	<path class="st1" d="M73.84,75.16c0.52,0,0.92,0.41,0.92,0.94c0,0.52-0.4,0.93-0.93,0.93c-0.51,0-0.93-0.42-0.93-0.93
		C72.91,75.58,73.33,75.16,73.84,75.16"/>
	<path class="st1" d="M74.23,73.43c-0.53,0.01-0.99-0.43-0.98-0.93c0.01-0.47,0.45-0.9,0.93-0.92c0.51-0.01,0.96,0.4,0.97,0.91
		C75.16,72.99,74.73,73.43,74.23,73.43"/>
	<path class="st1" d="M77.72,69.24c0,0.53-0.4,0.96-0.91,0.96c-0.49,0-0.92-0.45-0.91-0.96c0.01-0.51,0.4-0.91,0.9-0.92
		C77.31,68.3,77.71,68.71,77.72,69.24"/>
</g>
</svg>
