<?xml version="1.0" encoding="utf-8"?>
<!-- Generator: Adobe Illustrator 23.0.2, SVG Export Plug-In . SVG Version: 6.00 Build 0)  -->
<svg version="1.1" id="Layer_1" xmlns="http://www.w3.org/2000/svg" xmlns:xlink="http://www.w3.org/1999/xlink" x="0px" y="0px"
	 viewBox="0 0 115 115" style="enable-background:new 0 0 115 115;" xml:space="preserve">
<style type="text/css">
	.st0{fill:#6AAF08;}
	.st1{fill:#FFFFFF;}
</style>
<circle class="st0" cx="57.5" cy="57.5" r="57.5"/>
<g>
	<path class="st1" d="M71.23,70.64h9.97v-0.59h-7.75v-6.92h0.35c5.98-0.47,10.56-4.93,10.56-10.33c0-5.75-5.28-27.93-11.74-27.93
		c-6.45,0-11.74,22.3-11.74,27.93c0,5.4,4.58,9.74,10.56,10.33v6.92H42.13v0.59h2.11c9.74,1.41,25.93,5.16,20.18,11.03
		c-4.11,4.34-9.74,7.04-15.61,7.39c0,0,30.51,10.91,41.89-3.17C87.42,77.68,79.91,71.93,71.23,70.64 M67.12,42.71l0.35-0.35
		l4.93,4.46V36.61h0.47v17.84l3.87-3.87l0.35,0.35l-4.22,4.22v4.58H72.4v-12.2l-0.12-0.12L67.12,42.71z"/>
	<path class="st1" d="M31.1,20.65c-6.45,0-11.74,22.18-11.74,27.93c0,5.28,4.46,9.62,10.21,10.21v5.16v0.12h0.23
		c1.06-0.12,1.99,0.23,2.58,1.06h0.23c0.12-0.23,0.23-0.47,0.47-0.59v-0.12v-5.63c5.52-0.82,9.74-5.05,9.74-10.21
		C42.83,42.83,37.55,20.65,31.1,20.65 M31.45,50.93v4.58h-0.47V43.3l-0.12-0.12l-5.16-4.69l0.35-0.35l4.93,4.46V32.39h0.47v17.84
		l3.76-3.87l0.35,0.35L31.45,50.93z"/>
	<path class="st1" d="M25.82,69.35h8.45c1.06,0,1.76,0.82,1.76,1.76v0.82c0,1.06-0.82,1.76-1.76,1.76h-8.45
		c-1.06,0-1.76-0.82-1.76-1.76v-0.82C23.94,70.17,24.76,69.35,25.82,69.35"/>
	<path class="st1" d="M36.26,64.19l6.1,5.87c0.7,0.7,0.7,1.88,0.12,2.58l-0.59,0.59c-0.7,0.7-1.88,0.7-2.58,0.12l-6.1-5.87
		c-0.7-0.7-0.7-1.88-0.12-2.58l0.59-0.59C34.38,63.48,35.44,63.48,36.26,64.19"/>
	<path class="st1" d="M23.94,64.31l6.81,0.23c1.06,0,1.76,0.82,1.76,1.88v0.82c0,1.06-0.82,1.76-1.88,1.76l-6.81-0.23
		c-1.06,0-1.76-0.82-1.76-1.88v-0.82C22.06,65.13,23,64.31,23.94,64.31"/>
	<path class="st1" d="M47.88,94.35h-7.86c-0.94,0-1.64-0.7-1.64-1.64V92c0-0.94,0.7-1.64,1.64-1.64h7.86c0.94,0,1.64,0.7,1.64,1.64
		v0.7C49.52,93.64,48.82,94.35,47.88,94.35"/>
	<path class="st1" d="M41.07,88.48l-5.63,5.4c-0.7,0.59-1.76,0.59-2.35,0l-0.47-0.47c-0.59-0.7-0.59-1.76,0-2.35l5.63-5.4
		c0.7-0.59,1.76-0.59,2.35,0l0.47,0.47C41.78,86.84,41.78,87.89,41.07,88.48"/>
	<path class="st1" d="M49.75,89.77l-6.34,0.23c-0.94,0-1.64-0.7-1.76-1.64v-0.7c0-0.94,0.7-1.64,1.64-1.76l6.34-0.23
		c0.94,0,1.64,0.7,1.76,1.64v0.7C51.4,88.95,50.69,89.77,49.75,89.77"/>
	<path class="st1" d="M95.64,75.69c-3.99,2.11-4.58,6.1-4.69,8.21c0,0.12-0.23,0.12-0.23,0c-0.47-1.29-1.06-2.46-1.88-3.52
		l-0.47-0.7c-0.23-0.23-0.35-0.47-0.59-0.7c-1.29-1.64-2.82-2.93-4.46-4.11c-0.12-0.12-0.23-0.23-0.35-0.47
		c-1.41-6.57,3.76-7.04,3.76-7.04c-1.88,1.99-2.23,4.93-0.94,7.28c0.59-3.4,2.93-6.1,6.1-7.28c-2.35,2.35-3.64,5.63-3.4,8.92
		c0.7-1.17,1.99-1.76,3.4-1.53c-1.64,0.94-2.58,2.93-2.23,4.81C90.94,77.21,93.17,75.81,95.64,75.69"/>
</g>
</svg>
