<?xml version="1.0" encoding="utf-8"?>
<!-- Generator: Adobe Illustrator 23.0.2, SVG Export Plug-In . SVG Version: 6.00 Build 0)  -->
<svg version="1.1" id="Layer_1" xmlns="http://www.w3.org/2000/svg" xmlns:xlink="http://www.w3.org/1999/xlink" x="0px" y="0px"
	 viewBox="0 0 115 115" style="enable-background:new 0 0 115 115;" xml:space="preserve">
<style type="text/css">
	.st0{fill:#6AAF08;}
	.st1{fill:#FFFFFF;}
</style>
<circle class="st0" cx="57.5" cy="57.5" r="57.5"/>
<g>
	<path class="st1" d="M70.32,97.38c-0.38-0.63-0.63-0.98-0.8-1.36c-0.37-0.83-0.87-0.93-1.47-0.28c-0.54,0.58-1,0.6-1.53-0.01
		c-0.66-0.76-1.19-0.51-1.55,0.3c-0.38,0.86-0.88,1.08-1.65,0.43c-0.54-0.45-1.01-0.25-1.39,0.25c-0.53,0.7-0.88,0.62-1.52-0.01
		c-0.56-0.56-1.42-0.87-2.2-1.1c-0.23-0.07-0.74,0.45-0.95,0.8c-0.47,0.8-0.82,0.84-1.43,0.11c-0.3-0.36-0.86-0.6-1.34-0.69
		c-1.78-0.33-3.25,0.55-4.71,1.36c-1,0.56-1.08,0.59-1.5-0.53c-0.1-0.27-0.22-0.53-0.3-0.81c-0.23-0.75-0.65-0.87-1.31-0.48
		c-0.3,0.17-0.73,0.38-0.99,0.29c-1-0.38-1.89-0.26-2.74,0.35c-0.3,0.22-0.71,0.38-0.88,0.68c-0.42,0.72-0.89,0.8-1.62,0.48
		c-0.36-0.16-0.82-0.09-1.24-0.11c-0.46-0.01-0.93,0-1.39,0c-0.02-0.11-0.04-0.23-0.06-0.34c0.2-0.18,0.39-0.38,0.6-0.54
		c1.75-1.29,1.63-2.52-0.18-3.73c-0.55-0.37-0.79-1.29-0.98-2c-0.05-0.18,0.58-0.65,0.96-0.83c0.66-0.31,0.88-0.68,0.75-1.44
		c-0.09-0.56,0.25-1.19,0.2-1.77c-0.08-0.96-0.33-1.91-0.51-2.87c-0.09-0.49-0.33-1.01-0.22-1.46c0.3-1.3,0.66-2.54-0.81-3.44
		c-0.2-0.12-0.22-0.71-0.16-1.06c0.11-0.67,0.42-1.3,0.5-1.97c0.04-0.37-0.1-0.9-0.35-1.14c-0.65-0.62-0.62-1.1-0.04-1.74
		c0.47-0.52,0.88-1.14,1.14-1.78c0.1-0.25-0.2-0.85-0.48-1.04c-1.24-0.84-1.26-0.8-0.14-1.73c0.16-0.13,0.42-0.36,0.38-0.47
		c-0.51-1.59,1-2.91,0.51-4.58c-0.28-0.94,0.31-2.1-0.42-3.09c-0.11-0.14,0.18-0.66,0.38-0.93c0.52-0.69,0.3-1.11-0.41-1.42
		c-0.27-0.11-0.54-0.2-0.79-0.35c-0.51-0.3-0.56-0.72-0.03-0.99c0.8-0.4,1.29-0.82,1.23-1.87c-0.06-1.02-0.67-1.33-1.37-1.72
		c-0.57-0.32-0.52-0.74-0.04-1.11c0.37-0.28,0.77-0.52,1.21-0.82c0.59,0.71,1.22,0.91,2.06,0.32c0.22-0.16,0.96,0.09,1.22,0.38
		c0.62,0.67,1.07,0.72,1.67,0.01c0.2-0.24,0.59-0.35,0.9-0.49c0.81-0.37,1.62-0.73,2.43-1.09c0.13-0.06,0.32-0.19,0.39-0.14
		c1.47,1.01,3.02-0.25,4.5,0.17c0.33,0.09,0.67,0.23,0.93,0.45c0.57,0.47,1.06,0.46,1.45-0.16c0.46-0.72,0.92-0.68,1.63-0.3
		c0.37,0.2,1.08,0.16,1.42-0.08c0.8-0.56,1.16-0.37,1.37,0.49c0.03,0.1,0.09,0.2,0.13,0.3c0.54,1.52,1.77,1.89,3.11,0.91
		c0.67-0.49,1.3-1.06,1.94-1.59c0.45-0.37,2.05,0.13,2.43,0.73c0.31,0.49,0.69,0.93,1.04,1.4c0.31-0.46,0.66-0.91,0.93-1.39
		c0.4-0.72,0.74-0.64,1.18-0.03c0.94,1.33,2.45,1.2,3.29-0.25c0.52-0.91,0.69-0.87,1.38-0.14c0.6,0.63,1.34,1.14,2.06,1.63
		c0.16,0.11,0.68,0.02,0.77-0.13c0.96-1.6,2.22-0.62,3.08-0.13c0.99,0.56,1.46,0.54,1.94-0.43c0.49-0.99,1.42-0.62,2.11-0.49
		c0.36,0.07,0.61,0.81,0.88,1.26c0.19,0.32,0.3,0.68,0.49,0.99c0.43,0.69,0.94,1.33,1.32,2.04c0.1,0.18-0.09,0.62-0.27,0.83
		c-0.75,0.92-0.91,2.29-0.19,3.22c0.59,0.77,0.29,1.12-0.43,1.48c-0.36,0.18-0.65,0.51-0.97,0.77c0.33,0.29,0.65,0.58,0.98,0.88
		c0.25,0.23,0.5,0.46,0.75,0.69c-0.27,0.2-0.53,0.43-0.82,0.58c-0.35,0.18-0.82,0.21-1.07,0.47c-0.21,0.22-0.38,0.82-0.24,0.99
		c0.84,1.02,0.9,2.22,1.03,3.43c0.05,0.47,0.12,1.04,0.41,1.37c0.61,0.68,0.46,1.07-0.2,1.57c-0.76,0.58-0.7,0.94,0.12,1.44
		c1.14,0.69,1.17,2.29-0.04,2.89c-0.98,0.48-1.42,1.03-0.95,2.1c0.07,0.15,0.06,0.38,0.01,0.54c-0.4,1.15-0.23,2.02,1.03,2.52
		c0.12,0.05,0.17,0.73,0.02,0.95c-0.81,1.13-0.83,1.11,0.34,1.9c0.2,0.14,0.37,0.33,0.73,0.65c-0.53,0.31-0.96,0.57-1.41,0.81
		c-0.9,0.48-0.93,0.75-0.15,1.37c1.11,0.89,1.12,2.36-0.03,3.19c-0.65,0.46-0.68,0.9-0.12,1.39c0.63,0.54,0.62,1.06,0.1,1.67
		c-0.39,0.45-0.48,0.86,0.22,1.19c1.8,0.84,1.81,1.47,0.01,2.89c-0.29-0.22-0.58-0.53-0.92-0.66c-0.32-0.12-0.85-0.22-1.05-0.05
		c-1.11,0.92-2.26,0.6-3.47,0.32c-0.42-0.1-1-0.01-1.35,0.23c-0.93,0.65-2.36,0.64-3.09-0.23c-0.56-0.67-1.04-0.7-1.57-0.02
		c-0.6,0.77-1.05,0.6-1.41-0.22c-0.03-0.07-0.04-0.15-0.09-0.2c-0.25-0.28-0.5-0.55-0.76-0.83c-0.27,0.3-0.56,0.59-0.8,0.92
		C70.86,96.4,70.67,96.78,70.32,97.38"/>
	<path class="st1" d="M84.45,37.03c-2.68,0.51-5.03,0.37-6.94-1.45c-0.48-0.46-0.83-1.41-0.69-2.01c0.09-0.38,1.18-0.78,1.81-0.76
		C81.35,32.91,82.89,34.77,84.45,37.03"/>
	<path class="st1" d="M54.31,17.44c2.27,1.17,3.75,2.85,4.1,5.29c0.1,0.7-0.48,1.49-0.74,2.24c-0.73-0.3-1.69-0.4-2.15-0.94
		C53.91,22.15,53.62,19.92,54.31,17.44"/>
	<path class="st1" d="M90.11,22.71c-1.05,2.13-2.34,3.94-4.61,4.55c-0.83,0.22-1.86-0.27-2.79-0.44c0.38-0.86,0.56-1.94,1.19-2.54
		C85.59,22.67,87.76,22.47,90.11,22.71"/>
	<path class="st1" d="M18.53,64.37c1.68-2.17,3.55-3.64,6.27-3.41c0.6,0.05,1.42,0.55,1.64,1.06c0.16,0.38-0.34,1.3-0.8,1.64
		C23.51,65.25,21.17,65.4,18.53,64.37"/>
	<path class="st1" d="M97.74,68.22c-2.31,0.38-4.37,0.12-5.98-1.46c-0.54-0.53-0.6-1.55-0.88-2.34c0.78-0.14,1.62-0.53,2.33-0.37
		C95.47,64.53,96.83,66.1,97.74,68.22"/>
	<path class="st1" d="M94.87,44.6c-0.37,2.62-1.61,4.54-3.96,5.57c-0.59,0.26-1.42-0.04-2.15-0.08c0.05-0.79-0.18-1.75,0.19-2.33
		C90.29,45.67,92.35,44.75,94.87,44.6"/>
	<path class="st1" d="M53.02,33.35c-1.73,2.03-3.71,3.26-6.32,3c-0.62-0.06-1.63-0.62-1.67-1.04c-0.07-0.6,0.42-1.53,0.96-1.88
		C48.21,31.98,50.55,32.34,53.02,33.35"/>
	<path class="st1" d="M99.24,73.18c-1.54,2.1-3.28,3.54-5.9,3.36c-0.55-0.04-1.44-0.44-1.51-0.81c-0.1-0.54,0.21-1.4,0.65-1.76
		C94.47,72.36,96.74,72.36,99.24,73.18"/>
	<path class="st1" d="M69.51,27.9c-0.18,2.55-1.02,4.73-3.34,6.02c-0.52,0.29-1.48,0.34-1.94,0.04c-0.36-0.23-0.45-1.23-0.31-1.8
		C64.36,30.42,66.68,27.9,69.51,27.9"/>
	<path class="st1" d="M28.35,71.63c2.28,1.49,3.87,3.4,3.88,6.22c0,0.64-0.45,1.55-0.97,1.82c-0.4,0.21-1.38-0.21-1.83-0.64
		C28.04,77.73,26.89,74.26,28.35,71.63"/>
	<path class="st1" d="M39.69,43.12c0.02,0.41,0.04,0.76,0.04,1.11c0.01,0.7-0.18,0.88-0.87,0.88c-0.1,0-0.2,0.03-0.27,0.04
		c0-1.66,0-3.25,0-4.94c0.13,0.01,0.31,0.03,0.49,0.04c0.43,0.03,0.64,0.24,0.66,0.68c0,0.01,0,0.02,0,0.03
		c-0.16,0.7,0.19,1.03,0.82,1.22"/>
	<path class="st1" d="M14.31,39.21c0.37-0.06,0.74-0.15,1.1-0.16c0.86-0.02,1.72-0.01,2.58-0.01c0,0.41-0.01,0.79-0.01,1.2
		c-0.1,0-0.21,0.01-0.32,0.01c-0.66,0-1.33-0.01-1.99,0c-0.46,0.01-0.69,0.23-0.7,0.67c-0.01,1.57-0.01,3.14,0,4.71
		c0,0.46,0.24,0.68,0.72,0.69c0.75,0.01,1.49,0.01,2.23,0.01c0.01,0,0.02,0.01,0.05,0.02c-0.02,0.37-0.04,0.76-0.07,1.18
		c-0.46,0-0.99,0-1.53,0c-0.42,0-0.85,0.03-1.27-0.01c-0.29-0.02-0.57-0.13-0.85-0.2c-0.1-0.1-0.19-0.19-0.29-0.29
		c-0.07-0.41-0.19-0.82-0.19-1.23c-0.02-1.7-0.02-3.41,0-5.11c0-0.37,0.09-0.74,0.15-1.1C14.05,39.47,14.18,39.34,14.31,39.21"/>
	<path class="st1" d="M28.12,36.64c-0.03,0.13-0.08,0.26-0.08,0.38c-0.01,1.44-0.01,2.89,0,4.33c0.01,1.27,0.96,2.09,2.15,1.89
		c0.72-0.12,1.34-0.74,1.44-1.47c0.03-0.2,0.04-0.41,0.04-0.62c0-1.5,0-3,0-4.45c0.75-0.02,1.48-0.09,2.21-0.06
		c0.54,0.03,0.92,0.5,0.98,1.04c0.01,0.14,0.01,0.27,0.01,0.41c0,3.46,0,6.92,0,10.39c0,1.04-0.44,1.48-1.49,1.48
		c-4.23,0-8.46,0-12.69,0c-1.01,0-1.47-0.45-1.47-1.46c0-3.5,0-6.99,0-10.49c0-0.92,0.48-1.4,1.4-1.4c2.37,0,4.75,0,7.12,0
		C27.83,36.62,27.92,36.63,28.12,36.64 M21.82,42.39c0.34,0.11,0.63,0.27,0.93,0.28c0.8,0.04,1.6,0.03,2.4,0.01
		c0.71-0.01,1.21-0.5,1.23-1.22c0.02-0.61,0.02-1.21,0-1.82c-0.02-0.7-0.5-1.19-1.2-1.2c-0.81-0.02-1.63-0.02-2.44,0
		c-0.72,0.02-1.2,0.51-1.21,1.23c-0.01,0.59-0.03,1.19,0.01,1.78C21.57,41.76,21.72,42.05,21.82,42.39 M21.82,47.87
		c0.36,0.1,0.65,0.25,0.95,0.27c0.79,0.04,1.58,0.02,2.37,0.01c0.74-0.01,1.22-0.5,1.24-1.24c0.01-0.57,0.01-1.15,0-1.72
		c-0.02-0.77-0.52-1.27-1.28-1.28c-0.77-0.01-1.54-0.01-2.3,0c-0.76,0.01-1.25,0.5-1.27,1.25c-0.01,0.58-0.03,1.17,0.01,1.75
		C21.57,47.22,21.72,47.52,21.82,47.87"/>
	<path class="st1" d="M24.5,35.37c-0.52,0-0.9,0.01-1.32,0.01c0.06-1.14-0.17-2.3,0.36-3.39c1.06-2.16,3.8-2.72,5.6-1.13
		c0.83,0.73,1.3,1.64,1.3,2.74c0.02,2.59,0.01,5.18,0.01,7.77c0,0.44-0.23,0.7-0.59,0.7c-0.37,0-0.61-0.28-0.61-0.75
		c0-2.51-0.01-5.02,0-7.53c0-0.93-0.32-1.71-1.12-2.23c-1.52-0.99-3.59,0.02-3.71,1.83C24.38,34.04,24.47,34.71,24.5,35.37"/>
	<path class="st1" d="M36.14,46.33c0-2.43-0.01-4.84-0.01-7.38c0.11,0.03,0.24,0.09,0.38,0.09c0.58,0.02,0.79,0.21,0.79,0.79
		c0,0.65,0,1.31,0,1.96c0,1.19,0,2.38,0,3.58c0,0.81-0.16,0.97-0.96,0.96C36.28,46.33,36.21,46.33,36.14,46.33"/>
	<path class="st1" d="M22.82,41.42c0-0.58,0-1.16,0-1.72c0.76,0,1.54,0,2.31-0.01c0,0.57,0,1.16-0.01,1.73
		C24.36,41.43,23.58,41.43,22.82,41.42"/>
	<path class="st1" d="M25.12,45.22c0.01,0.53,0.01,1.11,0.02,1.67c-0.78,0-1.57,0-2.33,0c0-0.55,0.01-1.13,0.01-1.67
		C23.56,45.22,24.35,45.22,25.12,45.22"/>
	<path class="st1" d="M39.34,41.36h46.3c0.74,0,1.34,0.6,1.34,1.34s-0.6,1.34-1.34,1.34h-46.3"/>
	<path class="st1" d="M43.66,46.63c-0.7,0-1.26-0.56-1.26-1.26v-5.29c0-0.7,0.56-1.26,1.26-1.26c0.7,0,1.26,0.56,1.26,1.26v5.29
		C44.92,46.07,44.36,46.63,43.66,46.63"/>
	<path class="st1" d="M47.44,46.63c-0.7,0-1.26-0.56-1.26-1.26v-5.29c0-0.7,0.56-1.26,1.26-1.26c0.7,0,1.26,0.56,1.26,1.26v5.29
		C48.7,46.07,48.14,46.63,47.44,46.63"/>
	<path class="st1" d="M51.22,46.63c-0.7,0-1.26-0.56-1.26-1.26v-5.29c0-0.7,0.56-1.26,1.26-1.26c0.7,0,1.26,0.56,1.26,1.26v5.29
		C52.48,46.07,51.92,46.63,51.22,46.63"/>
	<path class="st1" d="M55,46.63c-0.7,0-1.26-0.56-1.26-1.26v-5.29c0-0.7,0.56-1.26,1.26-1.26c0.7,0,1.26,0.56,1.26,1.26v5.29
		C56.26,46.07,55.7,46.63,55,46.63"/>
	<path class="st1" d="M58.78,46.63c-0.7,0-1.26-0.56-1.26-1.26v-5.29c0-0.7,0.56-1.26,1.26-1.26c0.7,0,1.26,0.56,1.26,1.26v5.29
		C60.04,46.07,59.48,46.63,58.78,46.63"/>
	<path class="st1" d="M62.57,46.63c-0.7,0-1.26-0.56-1.26-1.26v-5.29c0-0.7,0.56-1.26,1.26-1.26c0.7,0,1.26,0.56,1.26,1.26v5.29
		C63.82,46.07,63.26,46.63,62.57,46.63"/>
	<path class="st1" d="M66.35,46.63c-0.7,0-1.26-0.56-1.26-1.26v-5.29c0-0.7,0.56-1.26,1.26-1.26c0.7,0,1.26,0.56,1.26,1.26v5.29
		C67.6,46.07,67.04,46.63,66.35,46.63"/>
	<path class="st1" d="M70.13,46.63c-0.7,0-1.26-0.56-1.26-1.26v-5.29c0-0.7,0.56-1.26,1.26-1.26c0.7,0,1.26,0.56,1.26,1.26v5.29
		C71.39,46.07,70.82,46.63,70.13,46.63"/>
	<path class="st1" d="M73.91,46.63c-0.7,0-1.26-0.56-1.26-1.26v-5.29c0-0.7,0.56-1.26,1.26-1.26c0.7,0,1.26,0.56,1.26,1.26v5.29
		C75.17,46.07,74.6,46.63,73.91,46.63"/>
	<path class="st1" d="M77.69,46.63c-0.7,0-1.26-0.56-1.26-1.26v-5.29c0-0.7,0.56-1.26,1.26-1.26c0.7,0,1.26,0.56,1.26,1.26v5.29
		C78.95,46.07,78.38,46.63,77.69,46.63"/>
	<path class="st1" d="M81.47,46.63c-0.7,0-1.26-0.56-1.26-1.26v-5.29c0-0.7,0.56-1.26,1.26-1.26c0.7,0,1.26,0.56,1.26,1.26v5.29
		C82.73,46.07,82.17,46.63,81.47,46.63"/>
</g>
</svg>
