<?xml version="1.0" encoding="utf-8"?>
<!-- Generator: Adobe Illustrator 23.0.2, SVG Export Plug-In . SVG Version: 6.00 Build 0)  -->
<svg version="1.1" id="Layer_1" xmlns="http://www.w3.org/2000/svg" xmlns:xlink="http://www.w3.org/1999/xlink" x="0px" y="0px"
	 viewBox="0 0 115 115" style="enable-background:new 0 0 115 115;" xml:space="preserve">
<style type="text/css">
	.st0{fill:#6AAF08;}
	.st1{fill:#FFFFFF;}
</style>
<circle class="st0" cx="57.5" cy="57.5" r="57.5"/>
<g>
	<path class="st1" d="M39.42,56.13L39.42,56.13l-3.15-0.02c-0.41,0-0.75-0.34-0.74-0.75c0-0.41,0.34-0.75,0.75-0.75h0l3.14,0.02
		c0.41,0,0.75,0.34,0.74,0.75C40.16,55.8,39.83,56.13,39.42,56.13"/>
	<path class="st1" d="M46.82,59.13c2.06,0,3.73,1.67,3.73,3.73c0,2.05-1.67,3.73-3.73,3.73c-2.05,0-3.73-1.67-3.73-3.73
		C43.1,60.8,44.77,59.13,46.82,59.13"/>
	<path class="st1" d="M17.21,51.36c2.47,0,4.47,2,4.47,4.47c0,0.31-0.03,0.61-0.09,0.9c0.5,0.33,0.89,0.85,1.05,1.48
		c0.34,1.35-0.48,2.72-1.83,3.05c-1.06,0.27-2.14-0.18-2.71-1.05c-0.29,0.06-0.59,0.09-0.9,0.09c-2.47,0-4.48-2-4.48-4.48
		C12.74,53.37,14.74,51.36,17.21,51.36"/>
	<path class="st1" d="M20.34,62.52c-0.67,0-1.21,0.54-1.21,1.21c0,0.67,0.54,1.21,1.21,1.21c0.67,0,1.21-0.54,1.21-1.21
		C21.55,63.06,21.01,62.52,20.34,62.52"/>
	<path class="st1" d="M21.7,45.84c-1.39,0-2.52,1.13-2.52,2.52s1.13,2.52,2.52,2.52c1.39,0,2.52-1.13,2.52-2.52
		S23.09,45.84,21.7,45.84"/>
	<path class="st1" d="M15.7,47.56c-0.67,0-1.21,0.54-1.21,1.21c0,0.67,0.54,1.21,1.21,1.21c0.67,0,1.21-0.54,1.21-1.21
		C16.91,48.1,16.37,47.56,15.7,47.56"/>
	<path class="st1" d="M93.37,54.3c-0.13,0-0.27,0-0.41-0.01l-0.67-0.04l-0.04-0.67c-0.12-2.19,0.71-4.33,2.26-5.88
		c1.46-1.46,3.4-2.27,5.47-2.27h0.07l1.15-1.15l1.06,1.06l-1.15,1.15c0.02,2.07-0.8,4.07-2.27,5.54
		C97.38,53.49,95.44,54.3,93.37,54.3"/>
	<path class="st1" d="M84.52,49.45l-0.15,0.3l-0.32-0.11c-1.5-0.53-2.71-1.68-3.32-3.15c-0.52-1.25-0.56-2.64-0.14-3.91l-0.65-1.57
		l1.38-0.57l0.65,1.57c1.19,0.6,2.15,1.62,2.66,2.87C85.25,46.35,85.2,48.02,84.52,49.45"/>
	<path class="st1" d="M93.72,43.6l-1.15-1.15H92.5c-2.07,0-4.01-0.81-5.47-2.27c-1.55-1.55-2.37-3.69-2.26-5.88l0.04-0.67l0.67-0.04
		c0.14-0.01,0.27-0.01,0.41-0.01c2.07,0,4.01,0.8,5.47,2.27c1.47,1.47,2.29,3.47,2.27,5.54l1.15,1.15L93.72,43.6z"/>
	<path class="st1" d="M23.22,64.06c-0.21,0.78-0.1,1.62,0.32,2.31c0.41,0.7,1.09,1.19,1.88,1.38l4.45,1.06
		c0.69,2.01,1.72,3.85,3.02,5.47l-3.32,3.32c-0.88,0.88-0.88,2.3,0,3.17c0.44,0.44,1.01,0.66,1.59,0.66c0.57,0,1.15-0.22,1.59-0.66
		l3.38-3.38c2.99,2.23,6.69,3.56,10.7,3.56c4.13,0,7.94-1.4,10.98-3.76l3.59,3.59c0.44,0.44,1.01,0.66,1.59,0.66
		c0.57,0,1.15-0.22,1.58-0.66c0.88-0.88,0.88-2.3,0-3.17L60.97,74c1.75-2.25,2.78-4.98,3.5-7.86c0.6-2.42,1.13-4.43,1.13-4.43
		l3.1,0.79l0.37-1.45l8.83,2.26l-0.37,1.45l10.07,2.58l0.37-1.45l12.07,3.09l2.23-8.7L90.2,57.2l0.37-1.45L80.5,53.17l-0.37,1.45
		l-8.83-2.26l0.37-1.45l-7.71-1.98l1.06-3.88c1.29-0.05,2.44-0.94,2.78-2.25c0.41-1.6-0.56-3.23-2.16-3.64l-2.75-0.71
		c-0.72-0.19-12.99-3.38-17.43-4.44c-3.48-0.83-7.06-0.49-10.08,0.94c-3.24,1.53-5.48,4.14-6.32,7.34
		C27.48,48.34,23.26,63.9,23.22,64.06 M65.91,57.87c0,0.01,0,0.01-0.01,0.02L65.91,57.87L65.91,57.87 M53.38,43.56h4.29l-0.96,3.52
		l-4.82-1.24c-1.61-0.47-3.31-0.73-5.07-0.73c-5.46,0-10.36,2.46-13.65,6.32l-0.34-0.08c0.79-2.93,1.52-5.68,2.01-7.53
		c0.84-3.2,4.98-4.98,9.23-3.97c1.74,0.41,4.78,1.18,7.84,1.96c-0.02,0.08-0.02,0.17-0.02,0.26C51.88,42.89,52.56,43.56,53.38,43.56
		L53.38,43.56z M34.68,56.17c-0.44-1.75,0.63-3.52,2.37-3.96c0.26-0.07,0.53-0.1,0.8-0.1c1.5,0,2.8,1.02,3.16,2.47
		c0.21,0.85,0.08,1.72-0.37,2.47c-0.45,0.75-1.16,1.28-2.01,1.49c-0.26,0.07-0.53,0.1-0.8,0.1C36.35,58.64,35.04,57.63,34.68,56.17
		 M45.86,54.12l-1.27-0.37c-0.8-0.23-1.25-1.06-1.03-1.85c0.23-0.79,1.06-1.26,1.85-1.03l4.06,1.16c0.79,0.23,1.25,1.06,1.02,1.85
		c-0.19,0.66-0.79,1.08-1.44,1.08c-0.14,0-0.28-0.02-0.41-0.06l-1.34-0.38l-0.49,1.52l-1.42-0.47L45.86,54.12z M48.17,57.81
		c2.23,0.59,3.88,2.63,3.88,5.05c0,2.88-2.34,5.22-5.22,5.22c-2.88,0-5.22-2.34-5.22-5.22c0-0.44,0.05-0.87,0.16-1.27
		c0-0.01,0-0.01,0-0.02c0.05-0.2,1.43-4.43,1.43-4.43c0.12-0.39,0.53-0.6,0.92-0.49L48.17,57.81 M59.24,50.55
		c0.67,0,1.21,0.54,1.21,1.21s-0.54,1.21-1.21,1.21s-1.21-0.54-1.21-1.21S58.57,50.55,59.24,50.55 M64.09,58.82l-9.91-2.42
		c-0.4-0.1-0.65-0.5-0.55-0.91c0.1-0.4,0.5-0.65,0.9-0.55l9.93,2.43L64.09,58.82z M55.6,64.94c-0.4-0.1-0.64-0.51-0.54-0.91
		c0.1-0.4,0.51-0.64,0.91-0.54l6.47,1.64l-0.38,1.45L55.6,64.94 M54.89,60.67c-0.4-0.1-0.65-0.51-0.55-0.91
		c0.1-0.4,0.51-0.64,0.91-0.54l8.2,2.04l-0.38,1.45L54.89,60.67z M39.29,74.22c-0.2-0.17-0.4-0.36-0.59-0.55l1.06-1.06
		c0.19,0.19,0.39,0.38,0.6,0.55c3.8,3.24,9.48,3.16,13.2-0.23c0.11-0.1,0.23-0.21,0.34-0.32l1.06,1.06
		c-0.11,0.11-0.22,0.22-0.34,0.33c-2.19,2.02-4.99,3.03-7.78,3.03C44.14,77.02,41.45,76.09,39.29,74.22 M35.17,67.93
		c-0.61-0.07-1.08-0.58-1.08-1.2c0-0.43,0.23-0.81,0.57-1.03c0.19-0.12,0.41-0.18,0.64-0.18c0.67,0,1.21,0.54,1.21,1.21
		c0,0.67-0.54,1.21-1.21,1.21C35.26,67.93,35.22,67.93,35.17,67.93 M32.43,60.79c0.2-0.8,1.01-1.29,1.82-1.09l4.79,1.2
		c0.8,0.2,1.29,1.01,1.09,1.81L32.43,60.79z M25.46,65.19c-0.1-0.17-0.13-0.38-0.08-0.57l2.53-9.39c0.11-0.39,0.51-0.63,0.91-0.53
		l2.52,0.64l-0.37,1.45l-1.8-0.46l-2.15,7.95l1.78,0.45l-0.37,1.45l-2.52-0.64C25.72,65.49,25.56,65.36,25.46,65.19"/>
</g>
</svg>
