<?xml version="1.0" encoding="utf-8"?>
<!-- Generator: Adobe Illustrator 23.0.2, SVG Export Plug-In . SVG Version: 6.00 Build 0)  -->
<svg version="1.1" id="Layer_1" xmlns="http://www.w3.org/2000/svg" xmlns:xlink="http://www.w3.org/1999/xlink" x="0px" y="0px"
	 viewBox="0 0 115 115" style="enable-background:new 0 0 115 115;" xml:space="preserve">
<style type="text/css">
	.st0{fill:#6AAF08;}
	.st1{fill:#FFFFFF;}
</style>
<circle class="st0" cx="57.5" cy="57.5" r="57.5"/>
<g>
	<path class="st1" d="M27.13,77.31c0.31-0.87,0.92-1.32,1.84-1.45c0.39-0.06,0.77-0.29,1.13-0.5c4.08-2.34,8.17-2.37,12.19,0.05
		c2.13,1.28,4.31,1.8,6.81,1.12c-0.13-0.1-0.21-0.18-0.29-0.21c-3.07-1.16-4.92-3.46-6.03-6.45c-0.86-2.33-1.18-4.78-1.67-7.2
		c-0.32-1.56-0.72-3.11-1.23-4.62c-0.55-1.6-1.84-2.31-3.5-2.33c-0.82-0.01-1.48-0.29-1.84-1.05c-0.52-1.1,0.22-2.47,1.44-2.48
		c2.46-0.03,4.94-0.24,7.39,0.32c2.42,0.55,4.33,1.86,5.53,4.03c0.85,1.53,1.53,3.16,2.2,4.78c0.99,2.38,1.95,4.76,3.56,6.8
		c0.31,0.39,0.63,0.76,1.02,1.22v-24.3c-1.46,0-2.92-0.06-4.37,0.01c-2.05,0.1-2.84-0.65-2.71-2.72c0.05-0.85,0-1.7,0.01-2.55
		c0.02-1.12,0.74-1.86,1.87-1.86c4.69-0.01,9.37-0.01,14.06,0c1.12,0,1.84,0.74,1.86,1.87c0.01,1.13,0.01,2.25,0,3.38
		c-0.02,1.12-0.75,1.85-1.88,1.86c-1.72,0.01-3.44,0-5.2,0v24.18c0.05,0.03,0.1,0.07,0.15,0.1c0.76-1.11,1.66-2.15,2.26-3.34
		c1.02-2.02,1.87-4.13,2.76-6.22c0.76-1.78,1.54-3.56,2.93-4.97c1.81-1.82,4.08-2.49,6.56-2.6c1.6-0.07,3.2-0.04,4.8-0.03
		c1.06,0.01,1.84,0.78,1.83,1.78c0,0.97-0.75,1.71-1.78,1.78c-2.34,0.13-3.48,0.94-4.09,3.22c-0.56,2.11-0.93,4.28-1.36,6.43
		c-0.48,2.39-1.02,4.75-2.3,6.87c-1.14,1.87-2.7,3.23-4.75,4.03c-0.11,0.04-0.21,0.1-0.43,0.19c1.19,0.43,2.31,0.47,3.44,0.33
		c1.22-0.15,2.31-0.65,3.35-1.28c4.2-2.53,8.4-2.52,12.6,0.01c0.34,0.2,0.67,0.42,1.03,0.58c0.7,0.3,1.26,0.72,1.53,1.46v9.02
		c-0.43,0.43-0.87,0.87-1.3,1.31H28.43c-0.43-0.43-0.87-0.87-1.3-1.31V77.31z M37.97,82.54c0.55,0,1.11,0.01,1.66,0
		c1.07-0.02,1.84-0.77,1.85-1.76c0.01-0.99-0.76-1.77-1.82-1.79c-1.17-0.02-2.33-0.02-3.5,0c-1.02,0.02-1.78,0.78-1.79,1.76
		c-0.01,1,0.76,1.76,1.82,1.79C36.78,82.55,37.37,82.53,37.97,82.54 M57.48,82.53c0.57,0,1.15,0.01,1.72,0
		c1.07-0.02,1.84-0.77,1.85-1.76c0.01-1-0.76-1.77-1.82-1.79c-1.17-0.02-2.33-0.02-3.5,0c-1.02,0.02-1.78,0.79-1.79,1.76
		c-0.01,0.99,0.76,1.76,1.82,1.79C56.34,82.55,56.91,82.53,57.48,82.53 M77.08,82.53c0.59,0,1.19,0.02,1.78,0
		c1.02-0.03,1.78-0.8,1.78-1.77c0-0.97-0.76-1.75-1.78-1.77c-1.19-0.02-2.37-0.02-3.56,0c-1.02,0.02-1.78,0.8-1.78,1.77
		c0,0.97,0.76,1.74,1.78,1.78C75.89,82.55,76.48,82.53,77.08,82.53"/>
	<path class="st1" d="M61.53,27.13c1.02,0.47,1.36,1.29,1.32,2.39c-0.06,1.56-0.02,3.12-0.03,4.68c0,0.03-0.03,0.07-0.05,0.13H52.16
		v-0.55c0-1.42,0.05-2.85-0.01-4.27c-0.05-1.1,0.29-1.92,1.32-2.39H61.53z"/>
	<path class="st1" d="M27.13,32.11c0.08-0.13,0.16-0.26,0.23-0.39c0.41-0.71,1.21-1.05,1.96-0.86c0.8,0.21,1.36,0.91,1.36,1.72
		c0,0.81-0.55,1.51-1.36,1.72c-0.76,0.2-1.55-0.15-1.96-0.86c-0.08-0.13-0.16-0.26-0.23-0.39V32.11z"/>
	<path class="st1" d="M87.87,33.06c-0.08,0.13-0.16,0.26-0.24,0.39c-0.41,0.71-1.21,1.05-1.96,0.86c-0.8-0.21-1.36-0.91-1.36-1.72
		c0-0.81,0.55-1.51,1.36-1.72c0.76-0.2,1.55,0.15,1.96,0.86c0.08,0.13,0.16,0.26,0.24,0.39V33.06z"/>
	<path class="st1" d="M27.13,39.23c0.08-0.13,0.16-0.26,0.23-0.39c0.41-0.71,1.21-1.05,1.96-0.86c0.8,0.21,1.36,0.91,1.36,1.72
		c0,0.81-0.55,1.51-1.36,1.72c-0.76,0.2-1.55-0.15-1.96-0.86c-0.08-0.13-0.16-0.26-0.23-0.39V39.23z"/>
	<path class="st1" d="M87.87,40.18c-0.08,0.13-0.16,0.26-0.24,0.39c-0.41,0.71-1.21,1.05-1.96,0.86c-0.8-0.21-1.36-0.91-1.36-1.72
		c0-0.81,0.55-1.51,1.36-1.72c0.76-0.2,1.55,0.15,1.96,0.86c0.08,0.13,0.16,0.26,0.24,0.39V40.18z"/>
	<path class="st1" d="M27.13,46.35c0.08-0.13,0.16-0.26,0.23-0.39c0.41-0.71,1.21-1.05,1.96-0.86c0.8,0.21,1.36,0.91,1.36,1.72
		c0,0.81-0.55,1.51-1.36,1.72c-0.76,0.2-1.55-0.15-1.96-0.86c-0.08-0.13-0.16-0.26-0.23-0.39V46.35z"/>
	<path class="st1" d="M87.87,47.3c-0.08,0.13-0.16,0.26-0.24,0.39c-0.41,0.71-1.21,1.05-1.96,0.86c-0.8-0.21-1.36-0.91-1.36-1.72
		c0-0.81,0.55-1.51,1.36-1.72c0.76-0.2,1.55,0.15,1.96,0.86c0.08,0.13,0.16,0.26,0.24,0.39V47.3z"/>
	<path class="st1" d="M37.92,36.13c0.01,0.97-0.79,1.78-1.76,1.79c-0.97,0.01-1.78-0.79-1.79-1.76c-0.01-0.97,0.79-1.78,1.76-1.79
		C37.1,34.36,37.91,35.16,37.92,36.13"/>
	<path class="st1" d="M80.63,36.13c0.01,0.97-0.79,1.78-1.76,1.79c-0.97,0.01-1.78-0.79-1.79-1.76c-0.01-0.97,0.79-1.78,1.76-1.79
		C79.81,34.36,80.62,35.16,80.63,36.13"/>
	<path class="st1" d="M43.25,37.93c0.97-0.01,1.78,0.79,1.79,1.76c0.01,0.97-0.79,1.78-1.76,1.79c-0.97,0.01-1.78-0.79-1.79-1.76
		C41.48,38.75,42.28,37.94,43.25,37.93"/>
	<path class="st1" d="M71.75,37.93c0.97,0.01,1.77,0.82,1.76,1.79c-0.01,0.97-0.82,1.77-1.79,1.76c-0.97-0.01-1.77-0.82-1.76-1.79
		C69.97,38.72,70.79,37.92,71.75,37.93"/>
	<path class="st1" d="M37.92,43.28c-0.01,0.97-0.82,1.77-1.79,1.76c-0.97-0.01-1.77-0.82-1.76-1.79c0.01-0.97,0.82-1.77,1.79-1.76
		C37.13,41.5,37.93,42.31,37.92,43.28"/>
	<path class="st1" d="M80.63,43.25c0.01,0.97-0.79,1.78-1.76,1.79c-0.97,0.01-1.78-0.79-1.79-1.76c-0.01-0.97,0.79-1.78,1.76-1.79
		C79.81,41.48,80.62,42.28,80.63,43.25"/>
</g>
</svg>
