<?xml version="1.0" encoding="utf-8"?>
<!-- Generator: Adobe Illustrator 23.0.2, SVG Export Plug-In . SVG Version: 6.00 Build 0)  -->
<svg version="1.1" id="Layer_1" xmlns="http://www.w3.org/2000/svg" xmlns:xlink="http://www.w3.org/1999/xlink" x="0px" y="0px"
	 viewBox="0 0 115 115" style="enable-background:new 0 0 115 115;" xml:space="preserve">
<style type="text/css">
	.st0{fill:#6AAF08;}
	.st1{fill:#FFFFFF;}
</style>
<circle class="st0" cx="57.5" cy="57.5" r="57.5"/>
<g>
	<path class="st1" d="M12.5,40.44h49.21c0-0.7-0.57-1.26-1.26-1.26H60c0-0.36-0.29-0.64-0.65-0.64c-0.02,0-0.05,0-0.07,0.01
		c-0.15-0.34-0.52-0.59-0.95-0.59c-0.26,0-0.49,0.09-0.67,0.23c-0.21-0.29-0.54-0.48-0.92-0.48c-0.41,0-0.77,0.22-0.97,0.55
		c-0.06-0.01-0.11-0.01-0.17-0.01c-0.37,0-0.7,0.14-0.91,0.37c-0.11-0.08-0.24-0.13-0.39-0.13c-0.03,0-0.05,0-0.07,0.01
		c-0.15-0.34-0.51-0.59-0.95-0.59c-0.26,0-0.49,0.09-0.67,0.23c-0.21-0.29-0.54-0.48-0.92-0.48c-0.41,0-0.76,0.22-0.97,0.55
		c-0.06-0.01-0.11-0.01-0.17-0.01c-0.36,0-0.67,0.13-0.88,0.34c-0.08-0.03-0.17-0.05-0.26-0.05c-0.02,0-0.05,0-0.07,0.01
		c-0.15-0.34-0.52-0.59-0.95-0.59c-0.26,0-0.49,0.09-0.67,0.23c-0.21-0.29-0.54-0.48-0.92-0.48c-0.41,0-0.77,0.22-0.97,0.55
		c-0.06-0.01-0.11-0.01-0.17-0.01c-0.33,0-0.62,0.11-0.83,0.29c-0.02,0-0.04-0.01-0.07-0.01c-0.02,0-0.05,0-0.07,0.01
		c-0.15-0.34-0.52-0.59-0.95-0.59c-0.26,0-0.49,0.09-0.67,0.23c-0.21-0.29-0.54-0.48-0.92-0.48c-0.16,0-0.3,0.03-0.44,0.09
		c-0.13-0.05-0.26-0.08-0.41-0.08c-0.26,0-0.49,0.09-0.67,0.23c-0.21-0.29-0.54-0.48-0.92-0.48c-0.41,0-0.77,0.22-0.97,0.55
		c-0.06-0.01-0.11-0.01-0.17-0.01c-0.13,0-0.26,0.02-0.38,0.05c-0.2-0.18-0.47-0.3-0.76-0.3c-0.41,0-0.76,0.22-0.97,0.55
		c-0.06-0.01-0.11-0.01-0.17-0.01c-0.25,0-0.48,0.06-0.66,0.17c-0.11-0.19-0.32-0.32-0.56-0.32c-0.02,0-0.05,0-0.07,0.01
		c-0.15-0.34-0.52-0.59-0.95-0.59c-0.26,0-0.49,0.09-0.67,0.23c-0.21-0.29-0.54-0.48-0.92-0.48c-0.41,0-0.77,0.22-0.97,0.55
		c-0.06-0.01-0.11-0.01-0.17-0.01c-0.28,0-0.54,0.08-0.74,0.22c-0.18-0.25-0.5-0.41-0.85-0.41c-0.26,0-0.49,0.09-0.67,0.23
		c-0.21-0.29-0.54-0.48-0.92-0.48c-0.41,0-0.77,0.22-0.97,0.55c-0.06-0.01-0.11-0.01-0.17-0.01c-0.43,0-0.81,0.2-1,0.49
		c-0.11-0.1-0.26-0.16-0.43-0.16c-0.03,0-0.05,0-0.07,0.01c-0.15-0.34-0.52-0.59-0.95-0.59c-0.26,0-0.49,0.09-0.67,0.23
		c-0.21-0.29-0.54-0.48-0.92-0.48c-0.41,0-0.77,0.22-0.97,0.55c-0.06-0.01-0.11-0.01-0.17-0.01c-0.34,0-0.63,0.12-0.84,0.3
		c-0.06-0.01-0.11-0.02-0.17-0.02c-0.03,0-0.05,0-0.07,0.01c-0.15-0.34-0.52-0.59-0.95-0.59c-0.26,0-0.49,0.09-0.67,0.23
		c-0.21-0.29-0.54-0.48-0.92-0.48c-0.35,0-0.65,0.16-0.86,0.41c-0.01,0-0.02,0-0.03,0c-0.23,0-0.43,0.07-0.6,0.18
		c-0.03,0.01-0.06,0.02-0.09,0.03c-0.21-0.28-0.53-0.45-0.9-0.45c-0.41,0-0.77,0.22-0.97,0.55c-0.06-0.01-0.11-0.01-0.17-0.01
		c-0.63,0-1.14,0.42-1.14,0.93c0,0.06,0.01,0.11,0.02,0.16C12.9,39.35,12.5,39.85,12.5,40.44 M33.36,39.17
		c0.01-0.01,0.01-0.01,0.01-0.02c0.01,0.01,0.01,0.01,0.02,0.02H33.36z"/>
	<path class="st1" d="M59.6,62.31H16.98v10.35h1.3c0-3.24,2.63-5.87,5.87-5.87c3.24,0,5.86,2.63,5.86,5.87h1.88
		c0-3.24,2.63-5.87,5.86-5.87c3.24,0,5.87,2.63,5.87,5.87h20.37h9.61h0.16c0-3.24,2.63-5.87,5.87-5.87c3.24,0,5.86,2.63,5.86,5.87
		h2.68h0.4V59.79h-0.04l-1.07-2.61h-2.59l-3.36-9.12c-0.39-1.27-1.02-2.28-2.28-2.28H69.04h-2.77h-3.84L59.6,62.31z M67.24,49.42
		c0-0.89,0.72-1.61,1.62-1.61h9.17c0.89,0,1.34,0.71,1.62,1.61L82.07,56c0,0.89-0.72,1.62-1.62,1.62h-11.6
		c-0.89,0-1.62-0.72-1.62-1.62V49.42z"/>
	<polygon class="st1" points="61.71,41.05 12.5,41.05 17.88,60.84 57.88,60.84 	"/>
	<path class="st1" d="M74.66,72.66c0,2.79,2.26,5.05,5.05,5.05c2.79,0,5.05-2.26,5.05-5.05c0-2.79-2.26-5.05-5.05-5.05
		C76.92,67.61,74.66,69.87,74.66,72.66 M78,72.66c0-0.95,0.77-1.71,1.71-1.71c0.94,0,1.71,0.77,1.71,1.71
		c0,0.95-0.77,1.71-1.71,1.71C78.77,74.37,78,73.6,78,72.66"/>
	<path class="st1" d="M32.7,72.66c0,2.79,2.26,5.05,5.05,5.05c2.79,0,5.05-2.26,5.05-5.05c0-2.79-2.26-5.05-5.05-5.05
		C34.97,67.61,32.7,69.87,32.7,72.66 M36.04,72.66c0-0.95,0.77-1.71,1.71-1.71c0.95,0,1.71,0.77,1.71,1.71
		c0,0.95-0.77,1.71-1.71,1.71S36.04,73.6,36.04,72.66"/>
	<path class="st1" d="M19.02,72.66c0,2.79,2.26,5.05,5.05,5.05c2.79,0,5.05-2.26,5.05-5.05c0-2.79-2.26-5.05-5.05-5.05
		C21.28,67.61,19.02,69.87,19.02,72.66 M22.36,72.66c0-0.95,0.77-1.71,1.71-1.71c0.95,0,1.71,0.77,1.71,1.71
		c0,0.95-0.77,1.71-1.71,1.71C23.12,74.37,22.36,73.6,22.36,72.66"/>
	<path class="st1" d="M95.25,74.81c1.71,1.71,4.03,2.64,6.44,2.64c0.31,0,0.62-0.23,0.7-0.54c0.23-0.31,0.08-0.62-0.16-0.85
		c-4.5-3.57-6.05-8.77-4.5-15.36c0.08-0.23,0-0.46-0.16-0.7c-0.16-0.16-0.39-0.31-0.62-0.31c-2.4,0-4.42,2.02-4.42,4.42v4.11v0.08
		l-4.34-1.9v1.78l4.58,1.98C93.15,71.94,94,73.5,95.25,74.81"/>
</g>
</svg>
