<?xml version="1.0" encoding="utf-8"?>
<!-- Generator: Adobe Illustrator 23.0.2, SVG Export Plug-In . SVG Version: 6.00 Build 0)  -->
<svg version="1.1" id="Layer_1" xmlns="http://www.w3.org/2000/svg" xmlns:xlink="http://www.w3.org/1999/xlink" x="0px" y="0px"
	 viewBox="0 0 86.33 38.77" style="enable-background:new 0 0 86.33 38.77;" xml:space="preserve">
<path d="M0,3.02h47.2c0-0.67-0.54-1.21-1.21-1.21h-0.43c0-0.34-0.28-0.61-0.62-0.61c-0.02,0-0.05,0-0.07,0.01
	c-0.14-0.33-0.49-0.56-0.91-0.56c-0.25,0-0.47,0.09-0.65,0.22c-0.2-0.28-0.52-0.46-0.88-0.46c-0.39,0-0.74,0.21-0.93,0.53
	c-0.05-0.01-0.11-0.01-0.17-0.01c-0.36,0-0.67,0.14-0.87,0.35c-0.11-0.08-0.24-0.13-0.38-0.13c-0.02,0-0.05,0-0.07,0.01
	c-0.14-0.33-0.49-0.56-0.91-0.56c-0.25,0-0.47,0.08-0.64,0.22c-0.2-0.28-0.52-0.46-0.88-0.46c-0.39,0-0.73,0.21-0.93,0.53
	c-0.06-0.01-0.11-0.01-0.17-0.01c-0.34,0-0.64,0.12-0.85,0.32c-0.08-0.03-0.16-0.05-0.25-0.05c-0.02,0-0.05,0-0.07,0.01
	c-0.14-0.33-0.5-0.56-0.91-0.56c-0.25,0-0.47,0.08-0.64,0.22c-0.2-0.28-0.52-0.46-0.88-0.46c-0.39,0-0.73,0.21-0.93,0.53
	c-0.06-0.01-0.11-0.01-0.17-0.01c-0.31,0-0.6,0.11-0.8,0.28c-0.02,0-0.04-0.01-0.06-0.01c-0.02,0-0.05,0-0.07,0.01
	c-0.14-0.33-0.5-0.56-0.91-0.56c-0.25,0-0.47,0.08-0.64,0.22c-0.2-0.28-0.52-0.46-0.88-0.46c-0.15,0-0.29,0.03-0.42,0.09
	c-0.12-0.05-0.25-0.08-0.4-0.08c-0.25,0-0.47,0.08-0.65,0.22c-0.2-0.28-0.52-0.46-0.88-0.46c-0.39,0-0.74,0.21-0.93,0.53
	c-0.05-0.01-0.11-0.01-0.17-0.01c-0.13,0-0.25,0.02-0.37,0.05c-0.19-0.18-0.45-0.29-0.73-0.29c-0.39,0-0.73,0.21-0.93,0.53
	c-0.06-0.01-0.11-0.01-0.17-0.01c-0.24,0-0.46,0.06-0.64,0.17c-0.11-0.18-0.31-0.3-0.54-0.3c-0.02,0-0.05,0-0.07,0.01
	c-0.14-0.33-0.49-0.56-0.91-0.56c-0.25,0-0.47,0.08-0.64,0.22C19.83,0.18,19.51,0,19.15,0c-0.39,0-0.73,0.21-0.93,0.53
	c-0.05-0.01-0.11-0.01-0.17-0.01c-0.27,0-0.52,0.08-0.71,0.21c-0.17-0.24-0.47-0.4-0.81-0.4c-0.25,0-0.47,0.08-0.65,0.22
	c-0.2-0.28-0.52-0.46-0.88-0.46c-0.39,0-0.74,0.21-0.93,0.53c-0.05-0.01-0.11-0.01-0.17-0.01c-0.42,0-0.78,0.19-0.96,0.47
	c-0.11-0.1-0.25-0.16-0.42-0.16c-0.02,0-0.04,0-0.07,0.01c-0.14-0.33-0.5-0.56-0.91-0.56c-0.25,0-0.47,0.09-0.65,0.22
	c-0.2-0.28-0.52-0.46-0.88-0.46c-0.39,0-0.73,0.21-0.93,0.53C9.05,0.65,8.99,0.65,8.94,0.65c-0.32,0-0.61,0.11-0.81,0.29
	C8.07,0.93,8.02,0.92,7.96,0.92c-0.02,0-0.05,0-0.07,0.01C7.75,0.6,7.4,0.36,6.99,0.36c-0.25,0-0.47,0.09-0.65,0.22
	c-0.2-0.28-0.52-0.46-0.88-0.46c-0.33,0-0.63,0.15-0.83,0.39c-0.01,0-0.02,0-0.03,0c-0.22,0-0.41,0.07-0.57,0.17
	C4,0.7,3.97,0.71,3.94,0.72c-0.2-0.26-0.51-0.43-0.86-0.43c-0.39,0-0.74,0.21-0.93,0.53C2.1,0.8,2.04,0.8,1.99,0.8
	c-0.61,0-1.1,0.4-1.1,0.89c0,0.05,0.01,0.1,0.02,0.16C0.39,1.98,0,2.45,0,3.02 M20.01,1.81c0.01-0.01,0.01-0.01,0.01-0.02
	c0.01,0.01,0.01,0.01,0.02,0.02H20.01z"/>
<path d="M45.18,24H4.3v9.93h1.25c0-3.11,2.52-5.63,5.63-5.63c3.11,0,5.62,2.52,5.62,5.63h1.8c0-3.11,2.52-5.63,5.63-5.63
	c3.11,0,5.63,2.52,5.63,5.63h19.54h9.22h0.16c0-3.11,2.52-5.63,5.63-5.63c3.11,0,5.63,2.52,5.63,5.63h2.57h0.38V21.58h-0.03
	l-1.03-2.51h-2.49l-3.23-8.75c-0.37-1.22-0.98-2.19-2.19-2.19h-9.77h-2.66H47.9L45.18,24z M52.51,11.64c0-0.86,0.69-1.55,1.55-1.55
	h8.8c0.86,0,1.29,0.68,1.55,1.55l2.32,6.31c0,0.86-0.69,1.55-1.55,1.55H54.06c-0.86,0-1.55-0.69-1.55-1.55V11.64z"/>
<polygon points="47.2,3.6 0,3.6 5.16,22.59 43.53,22.59 "/>
<path d="M59.63,33.93c0,2.68,2.17,4.85,4.85,4.85c2.68,0,4.85-2.17,4.85-4.85c0-2.68-2.17-4.85-4.85-4.85
	C61.8,29.08,59.63,31.25,59.63,33.93 M62.83,33.93c0-0.91,0.73-1.64,1.64-1.64c0.91,0,1.64,0.73,1.64,1.64
	c0,0.91-0.74,1.64-1.64,1.64C63.57,35.57,62.83,34.83,62.83,33.93"/>
<path d="M19.38,33.93c0,2.68,2.17,4.85,4.85,4.85c2.68,0,4.85-2.17,4.85-4.85c0-2.68-2.17-4.85-4.85-4.85
	C21.55,29.08,19.38,31.25,19.38,33.93 M22.59,33.93c0-0.91,0.73-1.64,1.64-1.64s1.64,0.73,1.64,1.64c0,0.91-0.74,1.64-1.64,1.64
	S22.59,34.83,22.59,33.93"/>
<path d="M6.25,33.93c0,2.68,2.17,4.85,4.85,4.85c2.68,0,4.85-2.17,4.85-4.85c0-2.68-2.17-4.85-4.85-4.85
	C8.42,29.08,6.25,31.25,6.25,33.93 M9.46,33.93c0-0.91,0.73-1.64,1.64-1.64c0.91,0,1.64,0.73,1.64,1.64c0,0.91-0.74,1.64-1.64,1.64
	C10.19,35.57,9.46,34.83,9.46,33.93"/>
<path d="M79.38,35.99c1.64,1.64,3.87,2.53,6.18,2.53c0.3,0,0.6-0.22,0.67-0.52c0.22-0.3,0.07-0.6-0.15-0.82
	c-4.32-3.42-5.81-8.41-4.32-14.74c0.07-0.22,0-0.45-0.15-0.67c-0.15-0.15-0.37-0.3-0.6-0.3c-2.31,0-4.24,1.93-4.24,4.24v3.95v0.08
	l-4.17-1.83v1.71l4.39,1.9C77.36,33.24,78.18,34.73,79.38,35.99"/>
</svg>
